<?xml version="1.0" encoding="UTF-8" standalone="no"?><!DOCTYPE svg PUBLIC "-//W3C//DTD SVG 1.1//EN" "http://www.w3.org/Graphics/SVG/1.1/DTD/svg11.dtd"><svg width="100%" height="100%" viewBox="0 0 2288 272" version="1.1" xmlns="http://www.w3.org/2000/svg" xmlns:xlink="http://www.w3.org/1999/xlink" xml:space="preserve" xmlns:serif="http://www.serif.com/" style="fill-rule:evenodd;clip-rule:evenodd;stroke-linejoin:round;stroke-miterlimit:2;"><g><g transform="matrix(1,-5.18427e-19,5.43933e-19,0.953108,-1.77636e-15,9.42126)"><text x="-11.709px" y="200.913px" style="font-family:'Avenir-Book', 'Avenir';font-size:287.344px;fill:#ffe7b9;stroke:#ffe7b9;stroke-width:4.27px;">C</text></g><g transform="matrix(1,-5.18427e-19,5.43933e-19,0.953108,1.77636e-15,12.0568)"><text x="-11.709px" y="257.118px" style="font-family:'Avenir-Book', 'Avenir';font-size:287.344px;fill:#ffe7b9;stroke:#ffe7b9;stroke-width:4.27px;">C</text></g><g transform="matrix(1,-5.18427e-19,5.43933e-19,0.953108,-1.77636e-15,9.77226)"><text x="-11.709px" y="208.398px" style="font-family:'Avenir-Book', 'Avenir';font-size:287.344px;fill:#01152c;stroke:#01152c;stroke-width:4.27px;">C</text></g><g transform="matrix(1,-5.18427e-19,5.43933e-19,0.953108,1.77636e-15,12.4078)"><text x="-11.709px" y="264.603px" style="font-family:'Avenir-Book', 'Avenir';font-size:287.344px;fill:#2a414b;stroke:#2a414b;stroke-width:4.27px;">C</text></g></g><g><text x="289.072px" y="208.5px" style="font-family:'Fraunces144ptSoft-Regular', 'Fraunces 144pt Soft';font-size:207.246px;fill:#01152c;stroke:#01152c;stroke-width:6.25px;">C<tspan x="425.336px 561.601px 701.492px 774.547px 927.494px " y="208.5px 208.5px 208.5px 208.5px 208.5px ">ARIDI</tspan></text><text x="1096.51px" y="208.5px" style="font-family:'Fraunces144ptSoft-Regular', 'Fraunces 144pt Soft';font-size:207.246px;fill:#01152c;stroke:#01152c;stroke-width:6.25px;">C<tspan x="1234.33px 1392.46px 1542.92px 1680.74px 1753.8px 1880.94px 2020.83px 2170.05px " y="208.5px 208.5px 208.5px 208.5px 208.5px 208.5px 208.5px 208.5px ">ONCIERGE</tspan></text></g></svg>