<svg width="108" height="93" viewBox="0 0 108 93" fill="none" xmlns="http://www.w3.org/2000/svg">
<path fill-rule="evenodd" clip-rule="evenodd" d="M64.9507 38.6296C64.9259 36.8293 64.6903 35.0135 64.2191 33.1854C62.5665 26.7697 55.1938 22.6508 47.3466 21.6824C39.5026 20.714 31.3454 22.9177 28.2016 28.4985C26.4034 31.6893 26.1553 34.4393 26.8901 36.7579C27.6218 39.0641 29.3579 40.9761 31.7142 42.4659C38.284 46.6158 49.7898 47.4632 55.0388 45.7281C57.4664 44.9242 59.8381 43.9558 62.1479 42.8478C60.8272 50.1015 55.9068 56.9735 49.3401 63.1657C35.0689 76.6241 12.9227 86.8389 0.862106 90.5946C0.21412 90.7963 -0.145558 91.4854 0.0559688 92.1341C0.257496 92.7828 0.945775 93.146 1.59376 92.9443C13.8931 89.1141 36.4704 78.682 51.0237 64.9566C58.5422 57.8674 63.8997 49.8873 64.8143 41.4975C81.8108 32.4063 95.7689 15.9123 107.702 2.03182C108.146 1.51968 108.087 0.740577 107.572 0.296723C107.057 -0.144027 106.282 -0.0881813 105.839 0.427062C94.3922 13.7396 81.107 29.5756 64.9507 38.6296ZM62.4798 39.9487C62.5728 37.925 62.3743 35.8702 61.8379 33.7968C60.4086 28.244 53.8388 24.9601 47.0458 24.1221C42.882 23.6099 38.6004 24.0321 35.2426 25.5343C33.1312 26.4779 31.3918 27.8467 30.3439 29.709C28.9673 32.1518 28.6696 34.2407 29.2339 36.013C29.7982 37.7978 31.1997 39.2317 33.0259 40.3832C39.0128 44.1668 49.489 44.9708 54.2667 43.3909C57.085 42.4598 59.8196 41.2989 62.4798 39.9487Z" fill="#145A7C"/>
</svg>
