<svg version="1.2" xmlns="http://www.w3.org/2000/svg" viewBox="0 0 1573 1574" width="1573" height="1574">
	<title>Pinterest_Logo-svg</title>
	<defs>
		<clipPath clipPathUnits="userSpaceOnUse" id="cp1">
			<path d="m-6.16-18.47h6592.38v1611.52h-6592.38z"/>
		</clipPath>
	</defs>
	<style>
		.s1 { fill: #2a414b } 
	</style>
	<g id="g10">
		<g id="g14">
			<g id="Clip-Path: g16" clip-path="url(#cp1)">
				<g id="g16">
					<g id="g62">
						<path id="path64" class="s1" d="m1572.9 787.3c0 434.3-352 786.4-786.2 786.4-81 0-159.2-12.3-232.7-35.1 32-52.2 79.9-137.9 97.7-206.2 9.5-36.8 49-186.9 49-186.9 25.6 48.9 100.5 90.3 180.2 90.3 237.1 0 407.9-218.1 407.9-489.1 0-259.8-211.9-454.2-484.7-454.2-339.2 0-519.4 227.8-519.4 475.9 0 115.3 61.4 258.9 159.6 304.6 14.9 7 22.8 3.9 26.3-10.5 2.6-10.9 15.8-64.3 21.8-89.2 1.9-7.9 1-14.7-5.4-22.5-32.5-39.4-58.5-111.9-58.5-179.5 0-173.4 131.2-341.3 354.9-341.3 193.2 0 328.4 131.7 328.4 320 0 212.7-107.4 360.1-247.1 360.1-77.2 0-135-63.9-116.4-142.1 22.1-93.5 65.1-194.4 65.1-261.9 0-60.4-32.4-110.7-99.5-110.7-78.9 0-142.2 81.6-142.2 191 0 69.6 23.5 116.7 23.5 116.7 0 0-77.9 329.5-92.2 390.9-15.8 67.9-9.6 163.6-2.7 225.8-292.5-114.6-499.7-399.4-499.7-732.5 0-434.3 352-786.4 786.1-786.4 434.2 0 786.2 352.1 786.2 786.4z"/>
					</g>
				</g>
			</g>
		</g>
	</g>
</svg>