<svg width="14" height="8" viewBox="0 0 14 8" fill="none" xmlns="http://www.w3.org/2000/svg">
<path d="M8.0542 7.52442L13.7042 1.86442C13.7979 1.77146 13.8723 1.66085 13.9231 1.53899C13.9739 1.41714 14 1.28643 14 1.15442C14 1.02241 13.9739 0.8917 13.9231 0.769841C13.8723 0.647982 13.7979 0.537381 13.7042 0.444418C13.5168 0.258167 13.2634 0.153625 12.9992 0.153625C12.735 0.153625 12.4816 0.258167 12.2942 0.444418L7.2942 5.39442L2.3442 0.444417C2.15684 0.258166 1.90339 0.153625 1.6392 0.153625C1.37502 0.153625 1.12156 0.258166 0.934202 0.444417C0.839714 0.537032 0.764544 0.647477 0.713047 0.769352C0.66155 0.891228 0.634752 1.02211 0.634203 1.15442C0.634752 1.28672 0.66155 1.41761 0.713047 1.53948C0.764543 1.66136 0.839714 1.7718 0.934202 1.86442L6.5842 7.52442C6.67784 7.62592 6.79149 7.70693 6.91799 7.76234C7.04449 7.81775 7.1811 7.84635 7.3192 7.84635C7.4573 7.84635 7.59391 7.81775 7.72041 7.76234C7.84691 7.70693 7.96056 7.62592 8.0542 7.52442Z" fill="#4F778B"/>
</svg>
