<?xml version="1.0" encoding="UTF-8" standalone="no"?><!DOCTYPE svg PUBLIC "-//W3C//DTD SVG 1.1//EN" "http://www.w3.org/Graphics/SVG/1.1/DTD/svg11.dtd"><svg width="100%" height="100%" viewBox="0 0 2261 667" version="1.1" xmlns="http://www.w3.org/2000/svg" xmlns:xlink="http://www.w3.org/1999/xlink" xml:space="preserve" xmlns:serif="http://www.serif.com/" style="fill-rule:evenodd;clip-rule:evenodd;stroke-linejoin:round;stroke-miterlimit:2;"><g><g transform="matrix(0.985673,-5.43933e-19,5.3614e-19,1,-0.429995,0)"><g transform="matrix(678.373,0,0,678.373,636.15,494.582)"></g><text x="-30.012px" y="494.582px" style="font-family:'Avenir-Book', 'Avenir';font-size:678.373px;fill:#ea5455;stroke:#ea5455;stroke-width:4.2px;">C</text></g><g transform="matrix(0.985673,-5.43933e-19,5.3614e-19,1,-0.429995,-1.13687e-13)"><g transform="matrix(678.373,0,0,678.373,636.15,633.801)"></g><text x="-30.012px" y="633.801px" style="font-family:'Avenir-Book', 'Avenir';font-size:678.373px;fill:#ea5455;stroke:#ea5455;stroke-width:4.2px;">C</text></g><g transform="matrix(0.985673,-5.43933e-19,5.3614e-19,1,-0.429995,0)"><g transform="matrix(678.373,0,0,678.373,636.15,513.123)"></g><text x="-30.012px" y="513.123px" style="font-family:'Avenir-Book', 'Avenir';font-size:678.373px;fill:#fdfcf8;stroke:#fdfcf8;stroke-width:4.2px;">C</text></g><g transform="matrix(0.985673,-5.43933e-19,5.3614e-19,1,-0.429995,0)"><g transform="matrix(678.373,0,0,678.373,636.15,652.342)"></g><text x="-30.012px" y="652.342px" style="font-family:'Avenir-Book', 'Avenir';font-size:678.373px;fill:#fdfcf8;stroke:#fdfcf8;stroke-width:4.2px;">C</text></g></g><g><g transform="matrix(0.985673,0,0,1,20.2797,0)"><g transform="matrix(481.387,0,0,481.387,539.852,343.451)"><path d="M0.416,-0.636c0.025,0 0.049,0.001 0.071,0.004c0.021,0.002 0.042,0.006 0.061,0.011c0.019,0.005 0.037,0.012 0.054,0.021c0.005,0.002 0.008,0.004 0.009,0.007c0.002,0.002 0.003,0.007 0.003,0.015l0.013,0.125c-0,0.002 -0.002,0.003 -0.005,0.004c-0.004,0.001 -0.006,0 -0.007,-0.003c-0.017,-0.054 -0.042,-0.096 -0.076,-0.124c-0.034,-0.029 -0.077,-0.043 -0.13,-0.043c-0.053,0 -0.1,0.012 -0.14,0.037c-0.04,0.024 -0.072,0.059 -0.094,0.104c-0.023,0.045 -0.034,0.099 -0.034,0.16c-0,0.045 0.007,0.087 0.021,0.125c0.014,0.038 0.034,0.071 0.059,0.099c0.025,0.028 0.054,0.05 0.087,0.066c0.033,0.016 0.068,0.023 0.106,0.023c0.053,0 0.096,-0.013 0.129,-0.04c0.033,-0.027 0.06,-0.067 0.08,-0.122c0.001,-0.002 0.003,-0.002 0.007,-0.002c0.003,0.001 0.005,0.002 0.005,0.004l-0.011,0.114c-0.001,0.008 -0.002,0.013 -0.004,0.015c-0.001,0.002 -0.004,0.005 -0.009,0.007c-0.034,0.016 -0.066,0.026 -0.097,0.032c-0.031,0.007 -0.065,0.01 -0.1,0.01c-0.071,-0 -0.134,-0.014 -0.189,-0.042c-0.055,-0.027 -0.098,-0.065 -0.129,-0.114c-0.031,-0.05 -0.047,-0.107 -0.047,-0.171c-0,-0.048 0.009,-0.092 0.027,-0.131c0.019,-0.04 0.044,-0.074 0.078,-0.102c0.033,-0.028 0.072,-0.05 0.116,-0.066c0.045,-0.015 0.093,-0.023 0.146,-0.023Z" style="fill:#fdfcf8;fill-rule:nonzero;stroke:#fdfcf8;stroke-width:0.01px;"/></g><g transform="matrix(481.387,0,0,481.387,888.521,343.451)"><path d="M0.187,-0.261l0.012,-0.022l0.272,-0l0.007,0.022l-0.291,0Zm0.517,0.249c0.003,0 0.005,0.002 0.005,0.006c-0,0.004 -0.002,0.006 -0.005,0.006c-0.019,0 -0.039,-0.001 -0.059,-0.002c-0.021,-0.001 -0.041,-0.002 -0.06,-0.002c-0.021,0 -0.04,0.001 -0.056,0.002c-0.015,0.001 -0.033,0.002 -0.052,0.002c-0.003,0 -0.004,-0.002 -0.004,-0.006c0,-0.004 0.001,-0.006 0.004,-0.006c0.033,0 0.053,-0.005 0.06,-0.016c0.007,-0.01 0.004,-0.03 -0.011,-0.06l-0.215,-0.448l0.032,-0.048l-0.195,0.452c-0.018,0.041 -0.019,0.071 -0.003,0.091c0.015,0.019 0.044,0.029 0.086,0.029c0.003,0 0.005,0.002 0.005,0.006c-0,0.004 -0.002,0.006 -0.005,0.006c-0.02,0 -0.039,-0.001 -0.055,-0.002c-0.017,-0.001 -0.038,-0.002 -0.063,-0.002c-0.025,0 -0.045,0.001 -0.059,0.002c-0.015,0.001 -0.034,0.002 -0.055,0.002c-0.002,0 -0.004,-0.002 -0.004,-0.006c0,-0.004 0.002,-0.006 0.004,-0.006c0.018,0 0.034,-0.004 0.047,-0.011c0.013,-0.007 0.026,-0.02 0.038,-0.038c0.013,-0.019 0.026,-0.046 0.041,-0.08l0.213,-0.491c0.001,-0.002 0.003,-0.003 0.007,-0.004c0.004,0 0.007,0.001 0.007,0.004l0.24,0.495c0.016,0.032 0.03,0.058 0.042,0.076c0.011,0.018 0.023,0.031 0.034,0.038c0.011,0.007 0.023,0.011 0.036,0.011Z" style="fill:#fdfcf8;fill-rule:nonzero;stroke:#fdfcf8;stroke-width:0.01px;"/></g><g transform="matrix(481.387,0,0,481.387,1247.68,343.451)"><path d="M0.547,-0c-0.011,-0 -0.029,-0.013 -0.053,-0.038c-0.024,-0.026 -0.054,-0.063 -0.088,-0.11c-0.034,-0.048 -0.073,-0.105 -0.115,-0.171l0.067,-0.021c0.056,0.081 0.103,0.145 0.142,0.193c0.039,0.048 0.074,0.083 0.104,0.104c0.03,0.021 0.059,0.031 0.086,0.031c0.002,0 0.003,0.002 0.003,0.006c-0,0.004 -0.001,0.006 -0.003,0.006l-0.143,0Zm-0.241,-0.628c0.056,0 0.099,0.012 0.129,0.035c0.029,0.024 0.044,0.056 0.044,0.095c0,0.037 -0.011,0.071 -0.032,0.1c-0.021,0.03 -0.049,0.053 -0.083,0.069c-0.035,0.017 -0.072,0.025 -0.111,0.025c-0.008,0 -0.016,0 -0.025,-0c-0.009,-0.001 -0.017,-0.001 -0.024,-0.002l0,0.225c0,0.019 0.002,0.034 0.006,0.044c0.003,0.01 0.011,0.017 0.023,0.02c0.011,0.003 0.029,0.005 0.052,0.005c0.002,-0 0.003,0.002 0.003,0.006c-0,0.004 -0.001,0.006 -0.003,0.006c-0.017,-0 -0.035,-0 -0.055,-0.001c-0.02,-0.001 -0.042,-0.001 -0.066,-0.001c-0.023,-0 -0.045,0 -0.065,0.001c-0.021,0.001 -0.04,0.001 -0.056,0.001c-0.002,-0 -0.003,-0.002 -0.003,-0.006c0,-0.004 0.001,-0.006 0.003,-0.006c0.023,-0 0.04,-0.002 0.052,-0.005c0.012,-0.003 0.02,-0.01 0.024,-0.02c0.004,-0.01 0.006,-0.025 0.006,-0.044l0,-0.463c0,-0.019 -0.002,-0.034 -0.006,-0.043c-0.004,-0.01 -0.011,-0.017 -0.023,-0.02c-0.011,-0.004 -0.029,-0.006 -0.052,-0.006c-0.001,0 -0.002,-0.002 -0.002,-0.006c-0,-0.004 0.001,-0.006 0.002,-0.006c0.016,0 0.035,0.001 0.055,0.002c0.021,0.001 0.042,0.001 0.065,0.001c0.021,0 0.045,-0.001 0.072,-0.003c0.027,-0.002 0.05,-0.003 0.07,-0.003Zm0.091,0.162c-0,-0.037 -0.005,-0.067 -0.015,-0.088c-0.01,-0.021 -0.024,-0.035 -0.042,-0.044c-0.019,-0.009 -0.04,-0.013 -0.065,-0.013c-0.025,-0 -0.043,0.004 -0.054,0.014c-0.011,0.009 -0.017,0.027 -0.017,0.055l0,0.211c0.009,0.001 0.02,0.002 0.03,0.002c0.011,0.001 0.021,0.001 0.029,0.001c0.049,0 0.084,-0.011 0.104,-0.034c0.02,-0.023 0.03,-0.058 0.03,-0.104Z" style="fill:#fdfcf8;fill-rule:nonzero;stroke:#fdfcf8;stroke-width:0.01px;"/></g><g transform="matrix(481.387,0,0,481.387,1594.74,343.451)"><path d="M0.208,-0.081c-0,0.019 0.002,0.034 0.005,0.044c0.004,0.01 0.012,0.017 0.023,0.02c0.012,0.003 0.029,0.005 0.053,0.005c0.001,0 0.002,0.002 0.002,0.006c0,0.004 -0.001,0.006 -0.002,0.006c-0.017,0 -0.035,-0 -0.056,-0.001c-0.02,-0.001 -0.042,-0.001 -0.066,-0.001c-0.023,0 -0.045,0 -0.066,0.001c-0.02,0.001 -0.039,0.001 -0.056,0.001c-0.001,0 -0.002,-0.002 -0.002,-0.006c-0,-0.004 0.001,-0.006 0.002,-0.006c0.024,0 0.041,-0.002 0.053,-0.005c0.012,-0.003 0.02,-0.01 0.024,-0.02c0.004,-0.01 0.006,-0.025 0.006,-0.044l-0,-0.463c-0,-0.019 -0.002,-0.034 -0.006,-0.043c-0.004,-0.01 -0.012,-0.017 -0.024,-0.02c-0.012,-0.004 -0.03,-0.006 -0.053,-0.006c-0.001,0 -0.002,-0.002 -0.002,-0.006c-0,-0.004 0.001,-0.006 0.002,-0.006c0.017,0 0.036,0.001 0.056,0.002c0.021,0.001 0.043,0.001 0.066,0.001c0.024,0 0.046,-0 0.067,-0.001c0.02,-0.001 0.039,-0.002 0.055,-0.002c0.001,0 0.002,0.002 0.002,0.006c0,0.004 -0.001,0.006 -0.002,0.006c-0.023,0 -0.041,0.002 -0.052,0.006c-0.012,0.004 -0.019,0.011 -0.023,0.021c-0.004,0.01 -0.006,0.025 -0.006,0.044l-0,0.461Z" style="fill:#fdfcf8;fill-rule:nonzero;stroke:#fdfcf8;stroke-width:0.01px;"/></g><g transform="matrix(481.387,0,0,481.387,1775.45,343.451)"><path d="M0.31,0.004c-0.02,0 -0.044,-0.001 -0.074,-0.003c-0.029,-0.002 -0.056,-0.003 -0.081,-0.003c-0.023,0 -0.045,0 -0.065,0.001c-0.021,0.001 -0.04,0.001 -0.057,0.001c-0.001,-0 -0.002,-0.002 -0.002,-0.006c0,-0.004 0.001,-0.006 0.002,-0.006c0.023,-0 0.041,-0.002 0.053,-0.005c0.012,-0.003 0.02,-0.01 0.024,-0.02c0.004,-0.01 0.006,-0.025 0.006,-0.044l-0,-0.463c-0,-0.019 -0.002,-0.034 -0.006,-0.043c-0.004,-0.01 -0.012,-0.017 -0.023,-0.02c-0.012,-0.004 -0.029,-0.006 -0.052,-0.006c-0.002,0 -0.003,-0.002 -0.003,-0.006c0,-0.004 0.001,-0.006 0.003,-0.006c0.016,0 0.035,0.001 0.055,0.002c0.021,0.001 0.042,0.001 0.065,0.001c0.023,0 0.047,-0.001 0.073,-0.002c0.027,-0.002 0.049,-0.003 0.068,-0.003c0.07,0 0.132,0.013 0.184,0.04c0.053,0.027 0.094,0.063 0.123,0.109c0.029,0.046 0.044,0.098 0.044,0.155c-0,0.05 -0.009,0.095 -0.027,0.136c-0.018,0.04 -0.042,0.074 -0.073,0.103c-0.031,0.028 -0.067,0.05 -0.108,0.065c-0.041,0.015 -0.084,0.023 -0.129,0.023Zm-0.01,-0.017c0.05,-0 0.094,-0.012 0.132,-0.034c0.039,-0.022 0.069,-0.054 0.091,-0.097c0.022,-0.043 0.033,-0.095 0.033,-0.157c-0,-0.058 -0.011,-0.11 -0.031,-0.156c-0.021,-0.047 -0.049,-0.084 -0.087,-0.112c-0.037,-0.027 -0.081,-0.041 -0.133,-0.041c-0.039,0 -0.068,0.004 -0.085,0.012c-0.017,0.008 -0.025,0.026 -0.025,0.056l-0,0.45c-0,0.027 0.006,0.047 0.02,0.059c0.013,0.013 0.041,0.02 0.085,0.02Z" style="fill:#fdfcf8;fill-rule:nonzero;stroke:#fdfcf8;stroke-width:0.01px;"/></g><g transform="matrix(481.387,0,0,481.387,2129.58,343.451)"><path d="M0.208,-0.081c-0,0.019 0.002,0.034 0.005,0.044c0.004,0.01 0.012,0.017 0.023,0.02c0.012,0.003 0.029,0.005 0.053,0.005c0.001,0 0.002,0.002 0.002,0.006c0,0.004 -0.001,0.006 -0.002,0.006c-0.017,0 -0.035,-0 -0.056,-0.001c-0.02,-0.001 -0.042,-0.001 -0.066,-0.001c-0.023,0 -0.045,0 -0.066,0.001c-0.02,0.001 -0.039,0.001 -0.056,0.001c-0.001,0 -0.002,-0.002 -0.002,-0.006c-0,-0.004 0.001,-0.006 0.002,-0.006c0.024,0 0.041,-0.002 0.053,-0.005c0.012,-0.003 0.02,-0.01 0.024,-0.02c0.004,-0.01 0.006,-0.025 0.006,-0.044l-0,-0.463c-0,-0.019 -0.002,-0.034 -0.006,-0.043c-0.004,-0.01 -0.012,-0.017 -0.024,-0.02c-0.012,-0.004 -0.03,-0.006 -0.053,-0.006c-0.001,0 -0.002,-0.002 -0.002,-0.006c-0,-0.004 0.001,-0.006 0.002,-0.006c0.017,0 0.036,0.001 0.056,0.002c0.021,0.001 0.043,0.001 0.066,0.001c0.024,0 0.046,-0 0.067,-0.001c0.02,-0.001 0.039,-0.002 0.055,-0.002c0.001,0 0.002,0.002 0.002,0.006c0,0.004 -0.001,0.006 -0.002,0.006c-0.023,0 -0.041,0.002 -0.052,0.006c-0.012,0.004 -0.019,0.011 -0.023,0.021c-0.004,0.01 -0.006,0.025 -0.006,0.044l-0,0.461Z" style="fill:#fdfcf8;fill-rule:nonzero;stroke:#fdfcf8;stroke-width:0.01px;"/></g><g transform="matrix(481.387,0,0,481.387,2291.04,343.451)"></g><g transform="matrix(481.387,0,0,481.387,2422.94,343.451)"></g></g><g transform="matrix(0.985673,0,0,1,20.2543,0)"><g transform="matrix(281.138,0,0,281.138,576.52,624.873)"><path d="M0.416,-0.636c0.025,0 0.049,0.001 0.071,0.004c0.021,0.002 0.042,0.006 0.061,0.011c0.019,0.005 0.037,0.012 0.054,0.021c0.005,0.002 0.008,0.004 0.009,0.007c0.002,0.002 0.003,0.007 0.003,0.015l0.013,0.125c-0,0.002 -0.002,0.003 -0.005,0.004c-0.004,0.001 -0.006,0 -0.007,-0.003c-0.017,-0.054 -0.042,-0.096 -0.076,-0.124c-0.034,-0.029 -0.077,-0.043 -0.13,-0.043c-0.053,0 -0.1,0.012 -0.14,0.037c-0.04,0.024 -0.072,0.059 -0.094,0.104c-0.023,0.045 -0.034,0.099 -0.034,0.16c-0,0.045 0.007,0.087 0.021,0.125c0.014,0.038 0.034,0.071 0.059,0.099c0.025,0.028 0.054,0.05 0.087,0.066c0.033,0.016 0.068,0.023 0.106,0.023c0.053,0 0.096,-0.013 0.129,-0.04c0.033,-0.027 0.06,-0.067 0.08,-0.122c0.001,-0.002 0.003,-0.002 0.007,-0.002c0.003,0.001 0.005,0.002 0.005,0.004l-0.011,0.114c-0.001,0.008 -0.002,0.013 -0.004,0.015c-0.001,0.002 -0.004,0.005 -0.009,0.007c-0.034,0.016 -0.066,0.026 -0.097,0.032c-0.031,0.007 -0.065,0.01 -0.1,0.01c-0.071,-0 -0.134,-0.014 -0.189,-0.042c-0.055,-0.027 -0.098,-0.065 -0.129,-0.114c-0.031,-0.05 -0.047,-0.107 -0.047,-0.171c-0,-0.048 0.009,-0.092 0.027,-0.131c0.019,-0.04 0.044,-0.074 0.078,-0.102c0.033,-0.028 0.072,-0.05 0.116,-0.066c0.045,-0.015 0.093,-0.023 0.146,-0.023Z" style="fill:#fdfcf8;fill-rule:nonzero;stroke:#fdfcf8;stroke-width:0.02px;"/></g><g transform="matrix(281.138,0,0,281.138,780.148,624.873)"><path d="M0.366,0.012c-0.048,0 -0.091,-0.009 -0.13,-0.026c-0.039,-0.016 -0.073,-0.04 -0.1,-0.07c-0.028,-0.03 -0.049,-0.064 -0.064,-0.103c-0.015,-0.04 -0.023,-0.081 -0.023,-0.125c0,-0.054 0.011,-0.101 0.032,-0.142c0.021,-0.041 0.048,-0.075 0.083,-0.101c0.035,-0.027 0.073,-0.048 0.114,-0.061c0.041,-0.013 0.082,-0.02 0.123,-0.02c0.049,0 0.094,0.009 0.133,0.027c0.038,0.017 0.072,0.041 0.099,0.071c0.027,0.03 0.048,0.064 0.063,0.102c0.014,0.038 0.021,0.077 0.021,0.117c0,0.047 -0.009,0.09 -0.028,0.13c-0.019,0.04 -0.044,0.075 -0.076,0.105c-0.033,0.03 -0.07,0.054 -0.112,0.071c-0.043,0.017 -0.088,0.025 -0.135,0.025Zm0.035,-0.022c0.042,-0 0.08,-0.011 0.114,-0.033c0.035,-0.021 0.062,-0.053 0.082,-0.095c0.019,-0.042 0.029,-0.092 0.029,-0.153c0,-0.062 -0.01,-0.117 -0.032,-0.165c-0.022,-0.049 -0.053,-0.087 -0.093,-0.114c-0.039,-0.028 -0.087,-0.042 -0.141,-0.042c-0.07,0 -0.124,0.024 -0.163,0.071c-0.038,0.047 -0.057,0.112 -0.057,0.194c-0,0.047 0.006,0.092 0.018,0.133c0.013,0.041 0.031,0.076 0.054,0.107c0.024,0.031 0.051,0.055 0.083,0.071c0.032,0.017 0.067,0.026 0.106,0.026Z" style="fill:#fdfcf8;fill-rule:nonzero;stroke:#fdfcf8;stroke-width:0.02px;"/></g><g transform="matrix(281.138,0,0,281.138,1006.74,624.873)"><path d="M0.122,-0.114l0,-0.488l0.026,0.002l-0,0.486c-0,0.034 0.006,0.06 0.019,0.077c0.013,0.017 0.033,0.025 0.06,0.025c0.001,-0 0.002,0.002 0.002,0.006c0,0.004 -0.001,0.006 -0.002,0.006c-0.014,-0 -0.028,-0 -0.042,-0.001c-0.015,-0.001 -0.031,-0.001 -0.049,-0.001c-0.017,-0 -0.035,0 -0.051,0.001c-0.017,0.001 -0.032,0.001 -0.047,0.001c-0.002,-0 -0.002,-0.002 -0.002,-0.006c-0,-0.004 0,-0.006 0.002,-0.006c0.029,-0 0.051,-0.008 0.064,-0.025c0.013,-0.017 0.02,-0.043 0.02,-0.077Zm0.506,0.127c0,0.001 -0.001,0.002 -0.005,0.003c-0.003,0 -0.005,-0 -0.006,-0.001l-0.471,-0.558c-0.023,-0.027 -0.043,-0.046 -0.061,-0.055c-0.017,-0.01 -0.033,-0.015 -0.05,-0.015c-0.001,0 -0.002,-0.002 -0.002,-0.006c-0,-0.004 0.001,-0.006 0.002,-0.006c0.012,0 0.025,0 0.038,0.001c0.013,0.001 0.025,0.001 0.035,0.001c0.016,0 0.031,-0 0.044,-0.001c0.013,-0.001 0.023,-0.001 0.03,-0.001c0.009,0 0.015,0.004 0.019,0.012c0.004,0.007 0.013,0.021 0.029,0.04l0.39,0.47l0.008,0.116Zm0,-0.523l0,0.523l-0.025,-0.031l0,-0.492c0,-0.034 -0.006,-0.06 -0.019,-0.077c-0.012,-0.017 -0.032,-0.026 -0.059,-0.026c-0.001,0 -0.002,-0.002 -0.002,-0.006c0,-0.004 0.001,-0.006 0.002,-0.006c0.014,0 0.028,0.001 0.043,0.001c0.014,0.001 0.03,0.002 0.048,0.002c0.016,0 0.033,-0.001 0.049,-0.002c0.016,-0 0.031,-0.001 0.045,-0.001c0.001,0 0.002,0.002 0.002,0.006c0,0.004 -0.001,0.006 -0.002,0.006c-0.028,0 -0.049,0.009 -0.062,0.026c-0.013,0.017 -0.02,0.043 -0.02,0.077Z" style="fill:#fdfcf8;fill-rule:nonzero;stroke:#fdfcf8;stroke-width:0.02px;"/></g><g transform="matrix(281.138,0,0,281.138,1223.08,624.873)"><path d="M0.416,-0.636c0.025,0 0.049,0.001 0.071,0.004c0.021,0.002 0.042,0.006 0.061,0.011c0.019,0.005 0.037,0.012 0.054,0.021c0.005,0.002 0.008,0.004 0.009,0.007c0.002,0.002 0.003,0.007 0.003,0.015l0.013,0.125c-0,0.002 -0.002,0.003 -0.005,0.004c-0.004,0.001 -0.006,0 -0.007,-0.003c-0.017,-0.054 -0.042,-0.096 -0.076,-0.124c-0.034,-0.029 -0.077,-0.043 -0.13,-0.043c-0.053,0 -0.1,0.012 -0.14,0.037c-0.04,0.024 -0.072,0.059 -0.094,0.104c-0.023,0.045 -0.034,0.099 -0.034,0.16c-0,0.045 0.007,0.087 0.021,0.125c0.014,0.038 0.034,0.071 0.059,0.099c0.025,0.028 0.054,0.05 0.087,0.066c0.033,0.016 0.068,0.023 0.106,0.023c0.053,0 0.096,-0.013 0.129,-0.04c0.033,-0.027 0.06,-0.067 0.08,-0.122c0.001,-0.002 0.003,-0.002 0.007,-0.002c0.003,0.001 0.005,0.002 0.005,0.004l-0.011,0.114c-0.001,0.008 -0.002,0.013 -0.004,0.015c-0.001,0.002 -0.004,0.005 -0.009,0.007c-0.034,0.016 -0.066,0.026 -0.097,0.032c-0.031,0.007 -0.065,0.01 -0.1,0.01c-0.071,-0 -0.134,-0.014 -0.189,-0.042c-0.055,-0.027 -0.098,-0.065 -0.129,-0.114c-0.031,-0.05 -0.047,-0.107 -0.047,-0.171c-0,-0.048 0.009,-0.092 0.027,-0.131c0.019,-0.04 0.044,-0.074 0.078,-0.102c0.033,-0.028 0.072,-0.05 0.116,-0.066c0.045,-0.015 0.093,-0.023 0.146,-0.023Z" style="fill:#fdfcf8;fill-rule:nonzero;stroke:#fdfcf8;stroke-width:0.02px;"/></g><g transform="matrix(281.138,0,0,281.138,1426.71,624.873)"><path d="M0.208,-0.081c-0,0.019 0.002,0.034 0.005,0.044c0.004,0.01 0.012,0.017 0.023,0.02c0.012,0.003 0.029,0.005 0.053,0.005c0.001,0 0.002,0.002 0.002,0.006c0,0.004 -0.001,0.006 -0.002,0.006c-0.017,0 -0.035,-0 -0.056,-0.001c-0.02,-0.001 -0.042,-0.001 -0.066,-0.001c-0.023,0 -0.045,0 -0.066,0.001c-0.02,0.001 -0.039,0.001 -0.056,0.001c-0.001,0 -0.002,-0.002 -0.002,-0.006c-0,-0.004 0.001,-0.006 0.002,-0.006c0.024,0 0.041,-0.002 0.053,-0.005c0.012,-0.003 0.02,-0.01 0.024,-0.02c0.004,-0.01 0.006,-0.025 0.006,-0.044l-0,-0.463c-0,-0.019 -0.002,-0.034 -0.006,-0.043c-0.004,-0.01 -0.012,-0.017 -0.024,-0.02c-0.012,-0.004 -0.03,-0.006 -0.053,-0.006c-0.001,0 -0.002,-0.002 -0.002,-0.006c-0,-0.004 0.001,-0.006 0.002,-0.006c0.017,0 0.036,0.001 0.056,0.002c0.021,0.001 0.043,0.001 0.066,0.001c0.024,0 0.046,-0 0.067,-0.001c0.02,-0.001 0.039,-0.002 0.055,-0.002c0.001,0 0.002,0.002 0.002,0.006c0,0.004 -0.001,0.006 -0.002,0.006c-0.023,0 -0.041,0.002 -0.052,0.006c-0.012,0.004 -0.019,0.011 -0.023,0.021c-0.004,0.01 -0.006,0.025 -0.006,0.044l-0,0.461Z" style="fill:#fdfcf8;fill-rule:nonzero;stroke:#fdfcf8;stroke-width:0.02px;"/></g><g transform="matrix(281.138,0,0,281.138,1532.25,624.873)"><path d="M0.469,-0l-0.426,-0c-0.002,-0 -0.003,-0.002 -0.003,-0.006c0,-0.004 0.001,-0.006 0.003,-0.006c0.023,-0 0.04,-0.002 0.052,-0.005c0.011,-0.003 0.019,-0.01 0.023,-0.02c0.004,-0.01 0.006,-0.025 0.006,-0.044l-0,-0.463c-0,-0.019 -0.002,-0.034 -0.006,-0.043c-0.004,-0.01 -0.012,-0.017 -0.023,-0.02c-0.012,-0.004 -0.029,-0.006 -0.052,-0.006c-0.002,0 -0.003,-0.002 -0.003,-0.006c0,-0.004 0.001,-0.006 0.003,-0.006l0.408,0c0.007,0 0.01,0.003 0.01,0.009l0.002,0.126c-0,0.002 -0.002,0.003 -0.006,0.003c-0.003,0.001 -0.005,-0 -0.006,-0.002c-0.005,-0.037 -0.018,-0.065 -0.039,-0.084c-0.021,-0.019 -0.049,-0.028 -0.084,-0.028l-0.051,-0c-0.02,-0 -0.035,0.001 -0.046,0.005c-0.01,0.003 -0.018,0.009 -0.022,0.018c-0.004,0.009 -0.006,0.022 -0.006,0.038l-0,0.455c-0,0.016 0.002,0.028 0.005,0.038c0.004,0.009 0.011,0.015 0.021,0.019c0.01,0.003 0.024,0.005 0.042,0.005l0.066,-0c0.038,-0 0.069,-0.011 0.094,-0.034c0.025,-0.022 0.042,-0.054 0.051,-0.095c0,-0.002 0.002,-0.003 0.006,-0.002c0.004,0.001 0.006,0.002 0.006,0.004c-0.003,0.018 -0.005,0.04 -0.007,0.065c-0.002,0.025 -0.003,0.048 -0.003,0.07c0,0.01 -0.005,0.015 -0.015,0.015Zm-0.056,-0.23c-0,-0.028 -0.008,-0.05 -0.025,-0.063c-0.016,-0.014 -0.042,-0.021 -0.078,-0.021l-0.145,0l0,-0.023l0.148,0c0.034,0 0.059,-0.006 0.075,-0.018c0.016,-0.011 0.024,-0.03 0.024,-0.054c-0,-0.002 0.002,-0.002 0.005,-0.002c0.004,-0 0.006,0 0.006,0.002c0,0.021 0,0.037 -0,0.048c-0.001,0.011 -0.001,0.023 -0.001,0.036c0,0.016 0.001,0.031 0.001,0.046c0.001,0.015 0.002,0.032 0.002,0.049c-0,0.002 -0.002,0.002 -0.006,0.002c-0.004,0 -0.006,-0 -0.006,-0.002Z" style="fill:#fdfcf8;fill-rule:nonzero;stroke:#fdfcf8;stroke-width:0.02px;"/></g><g transform="matrix(281.138,0,0,281.138,1695.74,624.873)"><path d="M0.547,-0c-0.011,-0 -0.029,-0.013 -0.053,-0.038c-0.024,-0.026 -0.054,-0.063 -0.088,-0.11c-0.034,-0.048 -0.073,-0.105 -0.115,-0.171l0.067,-0.021c0.056,0.081 0.103,0.145 0.142,0.193c0.039,0.048 0.074,0.083 0.104,0.104c0.03,0.021 0.059,0.031 0.086,0.031c0.002,0 0.003,0.002 0.003,0.006c-0,0.004 -0.001,0.006 -0.003,0.006l-0.143,0Zm-0.241,-0.628c0.056,0 0.099,0.012 0.129,0.035c0.029,0.024 0.044,0.056 0.044,0.095c0,0.037 -0.011,0.071 -0.032,0.1c-0.021,0.03 -0.049,0.053 -0.083,0.069c-0.035,0.017 -0.072,0.025 -0.111,0.025c-0.008,0 -0.016,0 -0.025,-0c-0.009,-0.001 -0.017,-0.001 -0.024,-0.002l0,0.225c0,0.019 0.002,0.034 0.006,0.044c0.003,0.01 0.011,0.017 0.023,0.02c0.011,0.003 0.029,0.005 0.052,0.005c0.002,-0 0.003,0.002 0.003,0.006c-0,0.004 -0.001,0.006 -0.003,0.006c-0.017,-0 -0.035,-0 -0.055,-0.001c-0.02,-0.001 -0.042,-0.001 -0.066,-0.001c-0.023,-0 -0.045,0 -0.065,0.001c-0.021,0.001 -0.04,0.001 -0.056,0.001c-0.002,-0 -0.003,-0.002 -0.003,-0.006c0,-0.004 0.001,-0.006 0.003,-0.006c0.023,-0 0.04,-0.002 0.052,-0.005c0.012,-0.003 0.02,-0.01 0.024,-0.02c0.004,-0.01 0.006,-0.025 0.006,-0.044l0,-0.463c0,-0.019 -0.002,-0.034 -0.006,-0.043c-0.004,-0.01 -0.011,-0.017 -0.023,-0.02c-0.011,-0.004 -0.029,-0.006 -0.052,-0.006c-0.001,0 -0.002,-0.002 -0.002,-0.006c-0,-0.004 0.001,-0.006 0.002,-0.006c0.016,0 0.035,0.001 0.055,0.002c0.021,0.001 0.042,0.001 0.065,0.001c0.021,0 0.045,-0.001 0.072,-0.003c0.027,-0.002 0.05,-0.003 0.07,-0.003Zm0.091,0.162c-0,-0.037 -0.005,-0.067 -0.015,-0.088c-0.01,-0.021 -0.024,-0.035 -0.042,-0.044c-0.019,-0.009 -0.04,-0.013 -0.065,-0.013c-0.025,-0 -0.043,0.004 -0.054,0.014c-0.011,0.009 -0.017,0.027 -0.017,0.055l0,0.211c0.009,0.001 0.02,0.002 0.03,0.002c0.011,0.001 0.021,0.001 0.029,0.001c0.049,0 0.084,-0.011 0.104,-0.034c0.02,-0.023 0.03,-0.058 0.03,-0.104Z" style="fill:#fdfcf8;fill-rule:nonzero;stroke:#fdfcf8;stroke-width:0.02px;"/></g><g transform="matrix(281.138,0,0,281.138,1885.22,624.873)"><path d="M0.412,0.012c-0.057,0 -0.108,-0.009 -0.153,-0.026c-0.045,-0.017 -0.083,-0.04 -0.114,-0.07c-0.032,-0.03 -0.055,-0.065 -0.072,-0.104c-0.016,-0.039 -0.024,-0.081 -0.024,-0.126c0,-0.049 0.01,-0.093 0.029,-0.133c0.019,-0.039 0.046,-0.073 0.08,-0.101c0.034,-0.029 0.075,-0.05 0.121,-0.065c0.046,-0.015 0.096,-0.023 0.15,-0.023c0.034,0 0.067,0.003 0.098,0.009c0.032,0.006 0.057,0.015 0.078,0.026c0.006,0.003 0.009,0.005 0.01,0.007c0.001,0.002 0.001,0.007 0.002,0.016l0.013,0.124c-0,0.002 -0.002,0.003 -0.005,0.004c-0.004,0.001 -0.006,-0 -0.007,-0.003c-0.007,-0.02 -0.015,-0.041 -0.027,-0.06c-0.011,-0.02 -0.025,-0.038 -0.043,-0.053c-0.017,-0.016 -0.038,-0.028 -0.061,-0.038c-0.024,-0.01 -0.052,-0.014 -0.083,-0.014c-0.05,-0 -0.094,0.011 -0.134,0.034c-0.04,0.024 -0.072,0.057 -0.095,0.1c-0.024,0.043 -0.035,0.094 -0.035,0.154c-0,0.043 0.006,0.084 0.019,0.123c0.013,0.039 0.032,0.074 0.058,0.105c0.025,0.03 0.056,0.054 0.093,0.072c0.037,0.018 0.08,0.027 0.128,0.027c0.03,-0 0.054,-0.004 0.071,-0.012c0.018,-0.007 0.031,-0.02 0.039,-0.037c0.008,-0.018 0.012,-0.042 0.012,-0.073c-0,-0.032 -0.002,-0.056 -0.006,-0.071c-0.004,-0.015 -0.014,-0.025 -0.029,-0.029c-0.016,-0.005 -0.04,-0.007 -0.075,-0.007c-0.004,-0 -0.006,-0.003 -0.006,-0.008c0,-0.006 0.002,-0.008 0.005,-0.008c0.044,0.002 0.084,0.004 0.119,0.004c0.036,0 0.073,-0 0.112,-0.002c0.003,-0 0.005,0.002 0.005,0.007c0,0.004 -0.001,0.007 -0.005,0.007c-0.014,-0.001 -0.024,0.001 -0.031,0.006c-0.007,0.005 -0.011,0.016 -0.013,0.033c-0.001,0.016 -0.002,0.042 -0.002,0.078c-0,0.022 0.001,0.038 0.002,0.049c0.001,0.01 0.002,0.018 0.003,0.023c0.001,0.005 0.002,0.01 0.002,0.016c-0,0.004 -0.001,0.006 -0.002,0.008c-0.001,0.001 -0.004,0.002 -0.009,0.004c-0.035,0.007 -0.071,0.014 -0.11,0.019c-0.038,0.005 -0.074,0.008 -0.108,0.008Z" style="fill:#fdfcf8;fill-rule:nonzero;stroke:#fdfcf8;stroke-width:0.02px;"/></g><g transform="matrix(281.138,0,0,281.138,2098.57,624.873)"><path d="M0.469,-0l-0.426,-0c-0.002,-0 -0.003,-0.002 -0.003,-0.006c0,-0.004 0.001,-0.006 0.003,-0.006c0.023,-0 0.04,-0.002 0.052,-0.005c0.011,-0.003 0.019,-0.01 0.023,-0.02c0.004,-0.01 0.006,-0.025 0.006,-0.044l-0,-0.463c-0,-0.019 -0.002,-0.034 -0.006,-0.043c-0.004,-0.01 -0.012,-0.017 -0.023,-0.02c-0.012,-0.004 -0.029,-0.006 -0.052,-0.006c-0.002,0 -0.003,-0.002 -0.003,-0.006c0,-0.004 0.001,-0.006 0.003,-0.006l0.408,0c0.007,0 0.01,0.003 0.01,0.009l0.002,0.126c-0,0.002 -0.002,0.003 -0.006,0.003c-0.003,0.001 -0.005,-0 -0.006,-0.002c-0.005,-0.037 -0.018,-0.065 -0.039,-0.084c-0.021,-0.019 -0.049,-0.028 -0.084,-0.028l-0.051,-0c-0.02,-0 -0.035,0.001 -0.046,0.005c-0.01,0.003 -0.018,0.009 -0.022,0.018c-0.004,0.009 -0.006,0.022 -0.006,0.038l-0,0.455c-0,0.016 0.002,0.028 0.005,0.038c0.004,0.009 0.011,0.015 0.021,0.019c0.01,0.003 0.024,0.005 0.042,0.005l0.066,-0c0.038,-0 0.069,-0.011 0.094,-0.034c0.025,-0.022 0.042,-0.054 0.051,-0.095c0,-0.002 0.002,-0.003 0.006,-0.002c0.004,0.001 0.006,0.002 0.006,0.004c-0.003,0.018 -0.005,0.04 -0.007,0.065c-0.002,0.025 -0.003,0.048 -0.003,0.07c0,0.01 -0.005,0.015 -0.015,0.015Zm-0.056,-0.23c-0,-0.028 -0.008,-0.05 -0.025,-0.063c-0.016,-0.014 -0.042,-0.021 -0.078,-0.021l-0.145,0l0,-0.023l0.148,0c0.034,0 0.059,-0.006 0.075,-0.018c0.016,-0.011 0.024,-0.03 0.024,-0.054c-0,-0.002 0.002,-0.002 0.005,-0.002c0.004,-0 0.006,0 0.006,0.002c0,0.021 0,0.037 -0,0.048c-0.001,0.011 -0.001,0.023 -0.001,0.036c0,0.016 0.001,0.031 0.001,0.046c0.001,0.015 0.002,0.032 0.002,0.049c-0,0.002 -0.002,0.002 -0.006,0.002c-0.004,0 -0.006,-0 -0.006,-0.002Z" style="fill:#fdfcf8;fill-rule:nonzero;stroke:#fdfcf8;stroke-width:0.02px;"/></g><g transform="matrix(281.138,0,0,281.138,2250.82,624.873)"></g></g></g></svg>