<?xml version="1.0" encoding="UTF-8" standalone="no"?>
<!DOCTYPE svg PUBLIC "-//W3C//DTD SVG 1.1//EN" "http://www.w3.org/Graphics/SVG/1.1/DTD/svg11.dtd">
<svg width="100%" height="100%" viewBox="0 0 1950 217" version="1.1" xmlns="http://www.w3.org/2000/svg" xmlns:xlink="http://www.w3.org/1999/xlink" xml:space="preserve" xmlns:serif="http://www.serif.com/" style="fill-rule:evenodd;clip-rule:evenodd;stroke-linejoin:round;stroke-miterlimit:2;">
    <g transform="matrix(1,0,0,1,-42.3069,-866.56)">
        <g transform="matrix(2.67242,-4.9725e-16,6.49679e-16,3.02011,-3121.6,480.43)">
            <g transform="matrix(0.914691,-4.97531e-19,4.97531e-19,0.914691,1180.59,181.144)">
                <g transform="matrix(80,0,0,80,78.56,0)">
                </g>
                <text x="0px" y="0px" style="font-family:'Avenir-Book', 'Avenir';font-size:80px;fill:rgb(207,157,140);stroke:rgb(207,157,140);stroke-width:0.38px;">C</text>
            </g>
            <g transform="matrix(0.914691,-4.97531e-19,4.97531e-19,0.914691,1180.59,196.161)">
                <g transform="matrix(80,0,0,80,78.56,0)">
                </g>
                <text x="0px" y="0px" style="font-family:'Avenir-Book', 'Avenir';font-size:80px;fill:rgb(207,157,140);stroke:rgb(207,157,140);stroke-width:0.38px;">C</text>
            </g>
            <g transform="matrix(0.914691,-4.97531e-19,4.97531e-19,0.914691,1180.59,183.144)">
                <g transform="matrix(80,0,0,80,78.56,0)">
                </g>
                <text x="0px" y="0px" style="font-family:'Avenir-Book', 'Avenir';font-size:80px;fill:rgb(26,44,51);stroke:rgb(26,44,51);stroke-width:0.38px;">C</text>
            </g>
            <g transform="matrix(0.914691,-4.97531e-19,4.97531e-19,0.914691,1180.59,198.161)">
                <g transform="matrix(80,0,0,80,78.56,0)">
                </g>
                <text x="0px" y="0px" style="font-family:'Avenir-Book', 'Avenir';font-size:80px;fill:rgb(26,44,51);stroke:rgb(26,44,51);stroke-width:0.38px;">C</text>
            </g>
        </g>
        <g transform="matrix(3.64283,1.21632e-16,1.42114e-16,4.31852,-1713.12,-201.484)">
            <g transform="matrix(0.921095,0,0,0.921095,621.61,290.163)">
                <g transform="matrix(54,0,0,54,-98.2206,0)">
                    <path d="M0.416,-0.636C0.442,-0.636 0.465,-0.635 0.487,-0.632C0.508,-0.63 0.529,-0.626 0.548,-0.621C0.567,-0.616 0.585,-0.609 0.602,-0.6C0.607,-0.598 0.61,-0.596 0.612,-0.593C0.613,-0.591 0.614,-0.586 0.614,-0.578L0.627,-0.453C0.627,-0.451 0.625,-0.45 0.622,-0.449C0.618,-0.448 0.616,-0.449 0.615,-0.452C0.598,-0.506 0.573,-0.548 0.539,-0.576C0.505,-0.605 0.462,-0.619 0.409,-0.619C0.356,-0.619 0.309,-0.607 0.269,-0.582C0.229,-0.558 0.197,-0.523 0.175,-0.478C0.152,-0.433 0.141,-0.379 0.141,-0.318C0.141,-0.273 0.148,-0.231 0.162,-0.193C0.176,-0.155 0.196,-0.122 0.221,-0.094C0.246,-0.066 0.275,-0.044 0.308,-0.028C0.341,-0.012 0.376,-0.005 0.414,-0.005C0.467,-0.005 0.51,-0.018 0.543,-0.045C0.576,-0.072 0.603,-0.112 0.623,-0.167C0.624,-0.169 0.626,-0.169 0.63,-0.169C0.633,-0.168 0.635,-0.167 0.635,-0.165L0.624,-0.051C0.623,-0.043 0.622,-0.038 0.62,-0.036C0.619,-0.034 0.616,-0.031 0.611,-0.029C0.577,-0.013 0.545,-0.003 0.514,0.003C0.483,0.01 0.449,0.013 0.414,0.013C0.343,0.013 0.28,-0.001 0.225,-0.029C0.17,-0.056 0.127,-0.094 0.096,-0.143C0.065,-0.193 0.049,-0.25 0.049,-0.314C0.049,-0.362 0.058,-0.406 0.076,-0.445C0.095,-0.485 0.12,-0.519 0.154,-0.547C0.187,-0.575 0.226,-0.597 0.27,-0.613C0.315,-0.628 0.363,-0.636 0.416,-0.636Z" style="fill-rule:nonzero;stroke:black;stroke-width:0.01px;"/>
                </g>
                <g transform="matrix(54,0,0,54,-59.1084,0)">
                    <path d="M0.187,-0.261L0.199,-0.283L0.471,-0.283L0.478,-0.261L0.187,-0.261ZM0.704,-0.012C0.707,-0.012 0.709,-0.01 0.709,-0.006C0.709,-0.002 0.707,-0 0.704,-0C0.685,-0 0.665,-0.001 0.645,-0.002C0.624,-0.003 0.604,-0.004 0.585,-0.004C0.564,-0.004 0.545,-0.003 0.529,-0.002C0.514,-0.001 0.496,-0 0.477,-0C0.474,-0 0.473,-0.002 0.473,-0.006C0.473,-0.01 0.474,-0.012 0.477,-0.012C0.51,-0.012 0.53,-0.017 0.537,-0.028C0.544,-0.038 0.541,-0.058 0.526,-0.089L0.311,-0.536L0.343,-0.584L0.148,-0.132C0.13,-0.091 0.129,-0.061 0.145,-0.042C0.16,-0.022 0.189,-0.012 0.231,-0.012C0.234,-0.012 0.236,-0.01 0.236,-0.006C0.236,-0.002 0.234,-0 0.231,-0C0.211,-0 0.192,-0.001 0.176,-0.002C0.159,-0.003 0.138,-0.004 0.113,-0.004C0.088,-0.004 0.068,-0.003 0.054,-0.002C0.039,-0.001 0.02,-0 -0.001,-0C-0.003,-0 -0.005,-0.002 -0.005,-0.006C-0.005,-0.01 -0.003,-0.012 -0.001,-0.012C0.017,-0.012 0.033,-0.016 0.046,-0.023C0.059,-0.03 0.072,-0.043 0.084,-0.061C0.097,-0.08 0.11,-0.107 0.125,-0.141L0.338,-0.632C0.339,-0.634 0.341,-0.635 0.345,-0.636C0.349,-0.636 0.352,-0.635 0.352,-0.632L0.592,-0.137C0.608,-0.105 0.622,-0.079 0.634,-0.061C0.645,-0.043 0.657,-0.03 0.668,-0.023C0.679,-0.016 0.691,-0.012 0.704,-0.012Z" style="fill-rule:nonzero;stroke:black;stroke-width:0.01px;"/>
                </g>
                <g transform="matrix(54,0,0,54,-18.819,0)">
                    <path d="M0.547,-0C0.536,-0 0.518,-0.013 0.494,-0.038C0.47,-0.064 0.44,-0.101 0.406,-0.148C0.372,-0.196 0.333,-0.253 0.291,-0.319L0.358,-0.34C0.414,-0.259 0.461,-0.195 0.5,-0.147C0.539,-0.099 0.574,-0.064 0.604,-0.043C0.634,-0.022 0.663,-0.012 0.69,-0.012C0.692,-0.012 0.693,-0.01 0.693,-0.006C0.693,-0.002 0.692,-0 0.69,-0L0.547,-0ZM0.306,-0.628C0.362,-0.628 0.405,-0.616 0.435,-0.593C0.464,-0.569 0.479,-0.537 0.479,-0.498C0.479,-0.461 0.468,-0.427 0.447,-0.398C0.426,-0.368 0.398,-0.345 0.364,-0.329C0.329,-0.312 0.292,-0.304 0.253,-0.304C0.245,-0.304 0.237,-0.304 0.228,-0.304C0.219,-0.305 0.211,-0.305 0.204,-0.306L0.204,-0.081C0.204,-0.062 0.206,-0.047 0.21,-0.037C0.213,-0.027 0.221,-0.02 0.233,-0.017C0.244,-0.014 0.262,-0.012 0.285,-0.012C0.287,-0.012 0.288,-0.01 0.288,-0.006C0.288,-0.002 0.287,-0 0.285,-0C0.268,-0 0.25,-0 0.23,-0.001C0.21,-0.002 0.188,-0.002 0.164,-0.002C0.141,-0.002 0.119,-0.002 0.099,-0.001C0.078,-0 0.059,-0 0.043,-0C0.041,-0 0.04,-0.002 0.04,-0.006C0.04,-0.01 0.041,-0.012 0.043,-0.012C0.066,-0.012 0.083,-0.014 0.095,-0.017C0.107,-0.02 0.115,-0.027 0.119,-0.037C0.123,-0.047 0.125,-0.062 0.125,-0.081L0.125,-0.544C0.125,-0.563 0.123,-0.578 0.119,-0.588C0.115,-0.597 0.108,-0.604 0.096,-0.608C0.085,-0.611 0.067,-0.613 0.044,-0.613C0.043,-0.613 0.042,-0.615 0.042,-0.619C0.042,-0.623 0.043,-0.625 0.044,-0.625C0.06,-0.625 0.079,-0.624 0.099,-0.624C0.12,-0.623 0.141,-0.622 0.164,-0.622C0.185,-0.622 0.209,-0.623 0.236,-0.625C0.263,-0.627 0.286,-0.628 0.306,-0.628ZM0.397,-0.466C0.397,-0.503 0.392,-0.533 0.382,-0.554C0.372,-0.575 0.358,-0.589 0.34,-0.598C0.321,-0.607 0.3,-0.611 0.275,-0.611C0.25,-0.611 0.232,-0.607 0.221,-0.598C0.21,-0.588 0.204,-0.57 0.204,-0.542L0.204,-0.331C0.213,-0.33 0.224,-0.329 0.234,-0.329C0.245,-0.328 0.255,-0.328 0.263,-0.328C0.312,-0.328 0.347,-0.339 0.367,-0.362C0.387,-0.385 0.397,-0.42 0.397,-0.466Z" style="fill-rule:nonzero;stroke:black;stroke-width:0.01px;"/>
                </g>
                <g transform="matrix(54,0,0,54,20.1123,0)">
                    <path d="M0.208,-0.081C0.208,-0.062 0.21,-0.047 0.213,-0.037C0.217,-0.027 0.225,-0.02 0.236,-0.017C0.248,-0.014 0.265,-0.012 0.289,-0.012C0.29,-0.012 0.291,-0.01 0.291,-0.006C0.291,-0.002 0.29,-0 0.289,-0C0.272,-0 0.254,-0 0.233,-0.001C0.213,-0.002 0.191,-0.002 0.167,-0.002C0.144,-0.002 0.122,-0.002 0.101,-0.001C0.081,-0 0.062,-0 0.045,-0C0.044,-0 0.043,-0.002 0.043,-0.006C0.043,-0.01 0.044,-0.012 0.045,-0.012C0.069,-0.012 0.086,-0.014 0.098,-0.017C0.11,-0.02 0.118,-0.027 0.122,-0.037C0.126,-0.047 0.128,-0.062 0.128,-0.081L0.128,-0.544C0.128,-0.563 0.126,-0.578 0.122,-0.588C0.118,-0.597 0.11,-0.604 0.098,-0.608C0.086,-0.611 0.068,-0.613 0.045,-0.613C0.044,-0.613 0.043,-0.615 0.043,-0.619C0.043,-0.623 0.044,-0.625 0.045,-0.625C0.062,-0.625 0.081,-0.624 0.101,-0.624C0.122,-0.623 0.144,-0.622 0.167,-0.622C0.191,-0.622 0.213,-0.623 0.234,-0.624C0.254,-0.624 0.273,-0.625 0.289,-0.625C0.29,-0.625 0.291,-0.623 0.291,-0.619C0.291,-0.615 0.29,-0.613 0.289,-0.613C0.266,-0.613 0.248,-0.611 0.237,-0.607C0.225,-0.603 0.218,-0.596 0.214,-0.586C0.21,-0.576 0.208,-0.561 0.208,-0.542L0.208,-0.081Z" style="fill-rule:nonzero;stroke:black;stroke-width:0.01px;"/>
                </g>
                <g transform="matrix(54,0,0,54,40.3839,0)">
                    <path d="M0.31,0.004C0.29,0.004 0.266,0.003 0.236,0.001C0.207,-0.001 0.18,-0.002 0.155,-0.002C0.132,-0.002 0.11,-0.002 0.09,-0.001C0.069,-0 0.05,-0 0.033,-0C0.032,-0 0.031,-0.002 0.031,-0.006C0.031,-0.01 0.032,-0.012 0.033,-0.012C0.056,-0.012 0.074,-0.014 0.086,-0.017C0.098,-0.02 0.106,-0.027 0.11,-0.037C0.114,-0.047 0.116,-0.062 0.116,-0.081L0.116,-0.544C0.116,-0.563 0.114,-0.578 0.11,-0.588C0.106,-0.597 0.098,-0.604 0.087,-0.608C0.075,-0.611 0.058,-0.613 0.035,-0.613C0.033,-0.613 0.032,-0.615 0.032,-0.619C0.032,-0.623 0.033,-0.625 0.035,-0.625C0.051,-0.625 0.07,-0.624 0.09,-0.624C0.111,-0.623 0.132,-0.622 0.155,-0.622C0.178,-0.622 0.202,-0.623 0.228,-0.625C0.255,-0.626 0.277,-0.627 0.296,-0.627C0.366,-0.627 0.428,-0.614 0.48,-0.587C0.533,-0.56 0.574,-0.524 0.603,-0.478C0.632,-0.432 0.647,-0.38 0.647,-0.323C0.647,-0.273 0.638,-0.228 0.62,-0.188C0.602,-0.147 0.578,-0.113 0.547,-0.085C0.516,-0.056 0.48,-0.034 0.439,-0.019C0.398,-0.004 0.355,0.004 0.31,0.004ZM0.3,-0.014C0.35,-0.014 0.394,-0.025 0.432,-0.047C0.471,-0.069 0.501,-0.101 0.523,-0.144C0.545,-0.187 0.556,-0.239 0.556,-0.301C0.556,-0.359 0.545,-0.411 0.525,-0.457C0.504,-0.504 0.476,-0.541 0.438,-0.569C0.401,-0.596 0.357,-0.61 0.306,-0.61C0.266,-0.61 0.237,-0.606 0.22,-0.598C0.203,-0.59 0.195,-0.572 0.195,-0.542L0.195,-0.092C0.195,-0.065 0.201,-0.045 0.215,-0.033C0.228,-0.02 0.256,-0.014 0.3,-0.014Z" style="fill-rule:nonzero;stroke:black;stroke-width:0.01px;"/>
                </g>
                <g transform="matrix(54,0,0,54,80.109,0)">
                    <path d="M0.208,-0.081C0.208,-0.062 0.21,-0.047 0.213,-0.037C0.217,-0.027 0.225,-0.02 0.236,-0.017C0.248,-0.014 0.265,-0.012 0.289,-0.012C0.29,-0.012 0.291,-0.01 0.291,-0.006C0.291,-0.002 0.29,-0 0.289,-0C0.272,-0 0.254,-0 0.233,-0.001C0.213,-0.002 0.191,-0.002 0.167,-0.002C0.144,-0.002 0.122,-0.002 0.101,-0.001C0.081,-0 0.062,-0 0.045,-0C0.044,-0 0.043,-0.002 0.043,-0.006C0.043,-0.01 0.044,-0.012 0.045,-0.012C0.069,-0.012 0.086,-0.014 0.098,-0.017C0.11,-0.02 0.118,-0.027 0.122,-0.037C0.126,-0.047 0.128,-0.062 0.128,-0.081L0.128,-0.544C0.128,-0.563 0.126,-0.578 0.122,-0.588C0.118,-0.597 0.11,-0.604 0.098,-0.608C0.086,-0.611 0.068,-0.613 0.045,-0.613C0.044,-0.613 0.043,-0.615 0.043,-0.619C0.043,-0.623 0.044,-0.625 0.045,-0.625C0.062,-0.625 0.081,-0.624 0.101,-0.624C0.122,-0.623 0.144,-0.622 0.167,-0.622C0.191,-0.622 0.213,-0.623 0.234,-0.624C0.254,-0.624 0.273,-0.625 0.289,-0.625C0.29,-0.625 0.291,-0.623 0.291,-0.619C0.291,-0.615 0.29,-0.613 0.289,-0.613C0.266,-0.613 0.248,-0.611 0.237,-0.607C0.225,-0.603 0.218,-0.596 0.214,-0.586C0.21,-0.576 0.208,-0.561 0.208,-0.542L0.208,-0.081Z" style="fill-rule:nonzero;stroke:black;stroke-width:0.01px;"/>
                </g>
                <g transform="matrix(54,0,0,54,98.2206,0)">
                </g>
                <g transform="matrix(54,0,0,54,113.017,0)">
                </g>
            </g>
            <g transform="matrix(0.921095,0,0,0.921095,871.101,290.163)">
                <g transform="matrix(54,0,0,54,-160.797,0)">
                    <path d="M0.416,-0.636C0.442,-0.636 0.465,-0.635 0.487,-0.632C0.508,-0.63 0.529,-0.626 0.548,-0.621C0.567,-0.616 0.585,-0.609 0.602,-0.6C0.607,-0.598 0.61,-0.596 0.612,-0.593C0.613,-0.591 0.614,-0.586 0.614,-0.578L0.627,-0.453C0.627,-0.451 0.625,-0.45 0.622,-0.449C0.618,-0.448 0.616,-0.449 0.615,-0.452C0.598,-0.506 0.573,-0.548 0.539,-0.576C0.505,-0.605 0.462,-0.619 0.409,-0.619C0.356,-0.619 0.309,-0.607 0.269,-0.582C0.229,-0.558 0.197,-0.523 0.175,-0.478C0.152,-0.433 0.141,-0.379 0.141,-0.318C0.141,-0.273 0.148,-0.231 0.162,-0.193C0.176,-0.155 0.196,-0.122 0.221,-0.094C0.246,-0.066 0.275,-0.044 0.308,-0.028C0.341,-0.012 0.376,-0.005 0.414,-0.005C0.467,-0.005 0.51,-0.018 0.543,-0.045C0.576,-0.072 0.603,-0.112 0.623,-0.167C0.624,-0.169 0.626,-0.169 0.63,-0.169C0.633,-0.168 0.635,-0.167 0.635,-0.165L0.624,-0.051C0.623,-0.043 0.622,-0.038 0.62,-0.036C0.619,-0.034 0.616,-0.031 0.611,-0.029C0.577,-0.013 0.545,-0.003 0.514,0.003C0.483,0.01 0.449,0.013 0.414,0.013C0.343,0.013 0.28,-0.001 0.225,-0.029C0.17,-0.056 0.127,-0.094 0.096,-0.143C0.065,-0.193 0.049,-0.25 0.049,-0.314C0.049,-0.362 0.058,-0.406 0.076,-0.445C0.095,-0.485 0.12,-0.519 0.154,-0.547C0.187,-0.575 0.226,-0.597 0.27,-0.613C0.315,-0.628 0.363,-0.636 0.416,-0.636Z" style="fill-rule:nonzero;stroke:black;stroke-width:0.01px;"/>
                </g>
                <g transform="matrix(54,0,0,54,-121.685,0)">
                    <path d="M0.366,0.012C0.318,0.012 0.275,0.004 0.236,-0.014C0.197,-0.031 0.163,-0.054 0.136,-0.084C0.108,-0.114 0.087,-0.149 0.072,-0.188C0.057,-0.227 0.049,-0.268 0.049,-0.312C0.049,-0.366 0.059,-0.413 0.081,-0.454C0.101,-0.495 0.129,-0.529 0.164,-0.556C0.199,-0.583 0.237,-0.603 0.278,-0.616C0.319,-0.629 0.36,-0.636 0.401,-0.636C0.45,-0.636 0.495,-0.627 0.534,-0.61C0.572,-0.592 0.606,-0.568 0.633,-0.538C0.66,-0.508 0.681,-0.474 0.696,-0.436C0.71,-0.398 0.717,-0.359 0.717,-0.319C0.717,-0.272 0.708,-0.229 0.689,-0.189C0.67,-0.149 0.645,-0.114 0.613,-0.084C0.58,-0.054 0.543,-0.031 0.501,-0.014C0.458,0.004 0.413,0.012 0.366,0.012ZM0.401,-0.01C0.443,-0.01 0.481,-0.021 0.516,-0.043C0.55,-0.064 0.577,-0.096 0.597,-0.138C0.616,-0.18 0.626,-0.23 0.626,-0.291C0.626,-0.353 0.616,-0.408 0.594,-0.456C0.572,-0.505 0.541,-0.543 0.501,-0.57C0.462,-0.598 0.414,-0.612 0.36,-0.612C0.29,-0.612 0.236,-0.588 0.197,-0.541C0.159,-0.494 0.14,-0.429 0.14,-0.347C0.14,-0.3 0.146,-0.256 0.158,-0.215C0.171,-0.173 0.189,-0.138 0.212,-0.107C0.236,-0.076 0.263,-0.052 0.295,-0.036C0.327,-0.019 0.362,-0.01 0.401,-0.01Z" style="fill-rule:nonzero;stroke:black;stroke-width:0.01px;"/>
                </g>
                <g transform="matrix(54,0,0,54,-78.161,0)">
                    <path d="M0.122,-0.114L0.122,-0.602L0.148,-0.6L0.148,-0.114C0.148,-0.08 0.154,-0.054 0.167,-0.037C0.18,-0.02 0.2,-0.012 0.227,-0.012C0.228,-0.012 0.229,-0.01 0.229,-0.006C0.229,-0.002 0.228,-0 0.227,-0C0.213,-0 0.199,-0 0.185,-0.001C0.17,-0.002 0.154,-0.002 0.136,-0.002C0.119,-0.002 0.101,-0.002 0.085,-0.001C0.068,-0 0.053,-0 0.038,-0C0.036,-0 0.036,-0.002 0.036,-0.006C0.036,-0.01 0.036,-0.012 0.038,-0.012C0.067,-0.012 0.089,-0.02 0.102,-0.037C0.115,-0.054 0.122,-0.08 0.122,-0.114ZM0.628,0.013C0.628,0.014 0.627,0.015 0.623,0.016C0.62,0.016 0.618,0.016 0.617,0.015L0.146,-0.543C0.123,-0.57 0.103,-0.589 0.085,-0.599C0.068,-0.608 0.052,-0.613 0.035,-0.613C0.034,-0.613 0.033,-0.615 0.033,-0.619C0.033,-0.623 0.034,-0.625 0.035,-0.625C0.047,-0.625 0.06,-0.625 0.073,-0.624C0.086,-0.623 0.098,-0.623 0.108,-0.623C0.124,-0.623 0.139,-0.623 0.152,-0.624C0.165,-0.625 0.175,-0.625 0.182,-0.625C0.191,-0.625 0.197,-0.621 0.201,-0.614C0.205,-0.606 0.214,-0.592 0.23,-0.573L0.62,-0.103L0.628,0.013ZM0.628,-0.51L0.628,0.013L0.603,-0.018L0.603,-0.51C0.603,-0.544 0.597,-0.57 0.584,-0.587C0.572,-0.604 0.552,-0.613 0.525,-0.613C0.524,-0.613 0.523,-0.615 0.523,-0.619C0.523,-0.623 0.524,-0.625 0.525,-0.625C0.539,-0.625 0.553,-0.624 0.568,-0.624C0.582,-0.623 0.598,-0.622 0.616,-0.622C0.632,-0.622 0.649,-0.623 0.665,-0.624C0.681,-0.624 0.696,-0.625 0.71,-0.625C0.711,-0.625 0.712,-0.623 0.712,-0.619C0.712,-0.615 0.711,-0.613 0.71,-0.613C0.682,-0.613 0.661,-0.604 0.648,-0.587C0.635,-0.57 0.628,-0.544 0.628,-0.51Z" style="fill-rule:nonzero;stroke:black;stroke-width:0.01px;"/>
                </g>
                <g transform="matrix(54,0,0,54,-36.608,0)">
                    <path d="M0.416,-0.636C0.442,-0.636 0.465,-0.635 0.487,-0.632C0.508,-0.63 0.529,-0.626 0.548,-0.621C0.567,-0.616 0.585,-0.609 0.602,-0.6C0.607,-0.598 0.61,-0.596 0.612,-0.593C0.613,-0.591 0.614,-0.586 0.614,-0.578L0.627,-0.453C0.627,-0.451 0.625,-0.45 0.622,-0.449C0.618,-0.448 0.616,-0.449 0.615,-0.452C0.598,-0.506 0.573,-0.548 0.539,-0.576C0.505,-0.605 0.462,-0.619 0.409,-0.619C0.356,-0.619 0.309,-0.607 0.269,-0.582C0.229,-0.558 0.197,-0.523 0.175,-0.478C0.152,-0.433 0.141,-0.379 0.141,-0.318C0.141,-0.273 0.148,-0.231 0.162,-0.193C0.176,-0.155 0.196,-0.122 0.221,-0.094C0.246,-0.066 0.275,-0.044 0.308,-0.028C0.341,-0.012 0.376,-0.005 0.414,-0.005C0.467,-0.005 0.51,-0.018 0.543,-0.045C0.576,-0.072 0.603,-0.112 0.623,-0.167C0.624,-0.169 0.626,-0.169 0.63,-0.169C0.633,-0.168 0.635,-0.167 0.635,-0.165L0.624,-0.051C0.623,-0.043 0.622,-0.038 0.62,-0.036C0.619,-0.034 0.616,-0.031 0.611,-0.029C0.577,-0.013 0.545,-0.003 0.514,0.003C0.483,0.01 0.449,0.013 0.414,0.013C0.343,0.013 0.28,-0.001 0.225,-0.029C0.17,-0.056 0.127,-0.094 0.096,-0.143C0.065,-0.193 0.049,-0.25 0.049,-0.314C0.049,-0.362 0.058,-0.406 0.076,-0.445C0.095,-0.485 0.12,-0.519 0.154,-0.547C0.187,-0.575 0.226,-0.597 0.27,-0.613C0.315,-0.628 0.363,-0.636 0.416,-0.636Z" style="fill-rule:nonzero;stroke:black;stroke-width:0.01px;"/>
                </g>
                <g transform="matrix(54,0,0,54,2.50422,0)">
                    <path d="M0.208,-0.081C0.208,-0.062 0.21,-0.047 0.213,-0.037C0.217,-0.027 0.225,-0.02 0.236,-0.017C0.248,-0.014 0.265,-0.012 0.289,-0.012C0.29,-0.012 0.291,-0.01 0.291,-0.006C0.291,-0.002 0.29,-0 0.289,-0C0.272,-0 0.254,-0 0.233,-0.001C0.213,-0.002 0.191,-0.002 0.167,-0.002C0.144,-0.002 0.122,-0.002 0.101,-0.001C0.081,-0 0.062,-0 0.045,-0C0.044,-0 0.043,-0.002 0.043,-0.006C0.043,-0.01 0.044,-0.012 0.045,-0.012C0.069,-0.012 0.086,-0.014 0.098,-0.017C0.11,-0.02 0.118,-0.027 0.122,-0.037C0.126,-0.047 0.128,-0.062 0.128,-0.081L0.128,-0.544C0.128,-0.563 0.126,-0.578 0.122,-0.588C0.118,-0.597 0.11,-0.604 0.098,-0.608C0.086,-0.611 0.068,-0.613 0.045,-0.613C0.044,-0.613 0.043,-0.615 0.043,-0.619C0.043,-0.623 0.044,-0.625 0.045,-0.625C0.062,-0.625 0.081,-0.624 0.101,-0.624C0.122,-0.623 0.144,-0.622 0.167,-0.622C0.191,-0.622 0.213,-0.623 0.234,-0.624C0.254,-0.624 0.273,-0.625 0.289,-0.625C0.29,-0.625 0.291,-0.623 0.291,-0.619C0.291,-0.615 0.29,-0.613 0.289,-0.613C0.266,-0.613 0.248,-0.611 0.237,-0.607C0.225,-0.603 0.218,-0.596 0.214,-0.586C0.21,-0.576 0.208,-0.561 0.208,-0.542L0.208,-0.081Z" style="fill-rule:nonzero;stroke:black;stroke-width:0.01px;"/>
                </g>
                <g transform="matrix(54,0,0,54,22.7758,0)">
                    <path d="M0.469,-0L0.043,-0C0.041,-0 0.04,-0.002 0.04,-0.006C0.04,-0.01 0.041,-0.012 0.043,-0.012C0.066,-0.012 0.083,-0.014 0.095,-0.017C0.106,-0.02 0.114,-0.027 0.118,-0.037C0.122,-0.047 0.124,-0.062 0.124,-0.081L0.124,-0.544C0.124,-0.563 0.122,-0.578 0.118,-0.588C0.114,-0.597 0.106,-0.604 0.095,-0.608C0.083,-0.611 0.066,-0.613 0.043,-0.613C0.041,-0.613 0.04,-0.615 0.04,-0.619C0.04,-0.623 0.041,-0.625 0.043,-0.625L0.451,-0.625C0.458,-0.625 0.461,-0.622 0.461,-0.616L0.463,-0.49C0.463,-0.488 0.461,-0.487 0.457,-0.487C0.454,-0.486 0.452,-0.487 0.451,-0.489C0.446,-0.526 0.433,-0.554 0.412,-0.573C0.391,-0.592 0.363,-0.602 0.328,-0.602L0.277,-0.602C0.257,-0.602 0.242,-0.6 0.231,-0.596C0.221,-0.593 0.213,-0.587 0.209,-0.578C0.205,-0.569 0.203,-0.556 0.203,-0.54L0.203,-0.085C0.203,-0.069 0.205,-0.057 0.208,-0.048C0.212,-0.038 0.219,-0.032 0.229,-0.029C0.239,-0.025 0.253,-0.023 0.271,-0.023L0.337,-0.023C0.375,-0.023 0.406,-0.034 0.431,-0.057C0.456,-0.079 0.473,-0.111 0.482,-0.152C0.482,-0.154 0.484,-0.155 0.488,-0.154C0.492,-0.153 0.494,-0.152 0.494,-0.15C0.491,-0.132 0.489,-0.11 0.487,-0.085C0.485,-0.06 0.484,-0.037 0.484,-0.015C0.484,-0.005 0.479,-0 0.469,-0ZM0.413,-0.23C0.413,-0.258 0.405,-0.28 0.388,-0.293C0.372,-0.307 0.346,-0.314 0.311,-0.314L0.165,-0.314L0.165,-0.337L0.313,-0.337C0.347,-0.337 0.372,-0.343 0.388,-0.355C0.404,-0.366 0.412,-0.385 0.412,-0.409C0.412,-0.411 0.414,-0.411 0.417,-0.411C0.421,-0.411 0.423,-0.411 0.423,-0.409C0.423,-0.388 0.423,-0.372 0.423,-0.361C0.422,-0.35 0.422,-0.338 0.422,-0.325C0.422,-0.309 0.423,-0.294 0.423,-0.279C0.424,-0.264 0.425,-0.247 0.425,-0.23C0.425,-0.228 0.423,-0.228 0.419,-0.228C0.415,-0.228 0.413,-0.228 0.413,-0.23Z" style="fill-rule:nonzero;stroke:black;stroke-width:0.01px;"/>
                </g>
                <g transform="matrix(54,0,0,54,54.1795,0)">
                    <path d="M0.547,-0C0.536,-0 0.518,-0.013 0.494,-0.038C0.47,-0.064 0.44,-0.101 0.406,-0.148C0.372,-0.196 0.333,-0.253 0.291,-0.319L0.358,-0.34C0.414,-0.259 0.461,-0.195 0.5,-0.147C0.539,-0.099 0.574,-0.064 0.604,-0.043C0.634,-0.022 0.663,-0.012 0.69,-0.012C0.692,-0.012 0.693,-0.01 0.693,-0.006C0.693,-0.002 0.692,-0 0.69,-0L0.547,-0ZM0.306,-0.628C0.362,-0.628 0.405,-0.616 0.435,-0.593C0.464,-0.569 0.479,-0.537 0.479,-0.498C0.479,-0.461 0.468,-0.427 0.447,-0.398C0.426,-0.368 0.398,-0.345 0.364,-0.329C0.329,-0.312 0.292,-0.304 0.253,-0.304C0.245,-0.304 0.237,-0.304 0.228,-0.304C0.219,-0.305 0.211,-0.305 0.204,-0.306L0.204,-0.081C0.204,-0.062 0.206,-0.047 0.21,-0.037C0.213,-0.027 0.221,-0.02 0.233,-0.017C0.244,-0.014 0.262,-0.012 0.285,-0.012C0.287,-0.012 0.288,-0.01 0.288,-0.006C0.288,-0.002 0.287,-0 0.285,-0C0.268,-0 0.25,-0 0.23,-0.001C0.21,-0.002 0.188,-0.002 0.164,-0.002C0.141,-0.002 0.119,-0.002 0.099,-0.001C0.078,-0 0.059,-0 0.043,-0C0.041,-0 0.04,-0.002 0.04,-0.006C0.04,-0.01 0.041,-0.012 0.043,-0.012C0.066,-0.012 0.083,-0.014 0.095,-0.017C0.107,-0.02 0.115,-0.027 0.119,-0.037C0.123,-0.047 0.125,-0.062 0.125,-0.081L0.125,-0.544C0.125,-0.563 0.123,-0.578 0.119,-0.588C0.115,-0.597 0.108,-0.604 0.096,-0.608C0.085,-0.611 0.067,-0.613 0.044,-0.613C0.043,-0.613 0.042,-0.615 0.042,-0.619C0.042,-0.623 0.043,-0.625 0.044,-0.625C0.06,-0.625 0.079,-0.624 0.099,-0.624C0.12,-0.623 0.141,-0.622 0.164,-0.622C0.185,-0.622 0.209,-0.623 0.236,-0.625C0.263,-0.627 0.286,-0.628 0.306,-0.628ZM0.397,-0.466C0.397,-0.503 0.392,-0.533 0.382,-0.554C0.372,-0.575 0.358,-0.589 0.34,-0.598C0.321,-0.607 0.3,-0.611 0.275,-0.611C0.25,-0.611 0.232,-0.607 0.221,-0.598C0.21,-0.588 0.204,-0.57 0.204,-0.542L0.204,-0.331C0.213,-0.33 0.224,-0.329 0.234,-0.329C0.245,-0.328 0.255,-0.328 0.263,-0.328C0.312,-0.328 0.347,-0.339 0.367,-0.362C0.387,-0.385 0.397,-0.42 0.397,-0.466Z" style="fill-rule:nonzero;stroke:black;stroke-width:0.01px;"/>
                </g>
                <g transform="matrix(54,0,0,54,90.5729,0)">
                    <path d="M0.412,0.012C0.355,0.012 0.304,0.003 0.259,-0.014C0.214,-0.031 0.176,-0.054 0.145,-0.084C0.113,-0.114 0.09,-0.149 0.073,-0.188C0.057,-0.227 0.049,-0.269 0.049,-0.314C0.049,-0.363 0.059,-0.407 0.078,-0.447C0.097,-0.486 0.124,-0.52 0.158,-0.548C0.192,-0.577 0.233,-0.598 0.279,-0.613C0.325,-0.628 0.375,-0.636 0.429,-0.636C0.463,-0.636 0.496,-0.633 0.527,-0.627C0.559,-0.621 0.584,-0.612 0.605,-0.601C0.611,-0.598 0.614,-0.596 0.615,-0.594C0.616,-0.592 0.616,-0.587 0.617,-0.578L0.63,-0.454C0.63,-0.452 0.628,-0.451 0.625,-0.45C0.621,-0.449 0.619,-0.45 0.618,-0.453C0.611,-0.473 0.603,-0.494 0.591,-0.513C0.58,-0.533 0.566,-0.551 0.548,-0.566C0.531,-0.582 0.51,-0.594 0.487,-0.604C0.463,-0.614 0.435,-0.618 0.404,-0.618C0.354,-0.618 0.31,-0.607 0.27,-0.584C0.23,-0.56 0.198,-0.527 0.175,-0.484C0.151,-0.441 0.14,-0.39 0.14,-0.33C0.14,-0.287 0.146,-0.246 0.159,-0.207C0.172,-0.168 0.191,-0.133 0.217,-0.102C0.242,-0.072 0.273,-0.048 0.31,-0.03C0.347,-0.012 0.39,-0.003 0.438,-0.003C0.468,-0.003 0.492,-0.007 0.509,-0.015C0.527,-0.022 0.54,-0.035 0.548,-0.052C0.556,-0.07 0.56,-0.094 0.56,-0.125C0.56,-0.157 0.558,-0.181 0.554,-0.196C0.55,-0.211 0.54,-0.221 0.525,-0.225C0.509,-0.23 0.485,-0.232 0.45,-0.232C0.446,-0.232 0.444,-0.235 0.444,-0.24C0.444,-0.246 0.446,-0.248 0.449,-0.248C0.493,-0.246 0.533,-0.244 0.568,-0.244C0.604,-0.244 0.641,-0.244 0.68,-0.246C0.683,-0.246 0.685,-0.244 0.685,-0.239C0.685,-0.235 0.684,-0.232 0.68,-0.232C0.666,-0.233 0.656,-0.231 0.649,-0.226C0.642,-0.221 0.638,-0.21 0.636,-0.193C0.635,-0.177 0.634,-0.151 0.634,-0.115C0.634,-0.093 0.635,-0.077 0.636,-0.066C0.637,-0.056 0.638,-0.048 0.639,-0.043C0.64,-0.038 0.641,-0.033 0.641,-0.027C0.641,-0.023 0.64,-0.021 0.639,-0.019C0.638,-0.018 0.635,-0.017 0.63,-0.015C0.595,-0.008 0.559,-0.001 0.52,0.004C0.482,0.009 0.446,0.012 0.412,0.012Z" style="fill-rule:nonzero;stroke:black;stroke-width:0.01px;"/>
                </g>
                <g transform="matrix(54,0,0,54,131.553,0)">
                    <path d="M0.469,-0L0.043,-0C0.041,-0 0.04,-0.002 0.04,-0.006C0.04,-0.01 0.041,-0.012 0.043,-0.012C0.066,-0.012 0.083,-0.014 0.095,-0.017C0.106,-0.02 0.114,-0.027 0.118,-0.037C0.122,-0.047 0.124,-0.062 0.124,-0.081L0.124,-0.544C0.124,-0.563 0.122,-0.578 0.118,-0.588C0.114,-0.597 0.106,-0.604 0.095,-0.608C0.083,-0.611 0.066,-0.613 0.043,-0.613C0.041,-0.613 0.04,-0.615 0.04,-0.619C0.04,-0.623 0.041,-0.625 0.043,-0.625L0.451,-0.625C0.458,-0.625 0.461,-0.622 0.461,-0.616L0.463,-0.49C0.463,-0.488 0.461,-0.487 0.457,-0.487C0.454,-0.486 0.452,-0.487 0.451,-0.489C0.446,-0.526 0.433,-0.554 0.412,-0.573C0.391,-0.592 0.363,-0.602 0.328,-0.602L0.277,-0.602C0.257,-0.602 0.242,-0.6 0.231,-0.596C0.221,-0.593 0.213,-0.587 0.209,-0.578C0.205,-0.569 0.203,-0.556 0.203,-0.54L0.203,-0.085C0.203,-0.069 0.205,-0.057 0.208,-0.048C0.212,-0.038 0.219,-0.032 0.229,-0.029C0.239,-0.025 0.253,-0.023 0.271,-0.023L0.337,-0.023C0.375,-0.023 0.406,-0.034 0.431,-0.057C0.456,-0.079 0.473,-0.111 0.482,-0.152C0.482,-0.154 0.484,-0.155 0.488,-0.154C0.492,-0.153 0.494,-0.152 0.494,-0.15C0.491,-0.132 0.489,-0.11 0.487,-0.085C0.485,-0.06 0.484,-0.037 0.484,-0.015C0.484,-0.005 0.479,-0 0.469,-0ZM0.413,-0.23C0.413,-0.258 0.405,-0.28 0.388,-0.293C0.372,-0.307 0.346,-0.314 0.311,-0.314L0.165,-0.314L0.165,-0.337L0.313,-0.337C0.347,-0.337 0.372,-0.343 0.388,-0.355C0.404,-0.366 0.412,-0.385 0.412,-0.409C0.412,-0.411 0.414,-0.411 0.417,-0.411C0.421,-0.411 0.423,-0.411 0.423,-0.409C0.423,-0.388 0.423,-0.372 0.423,-0.361C0.422,-0.35 0.422,-0.338 0.422,-0.325C0.422,-0.309 0.423,-0.294 0.423,-0.279C0.424,-0.264 0.425,-0.247 0.425,-0.23C0.425,-0.228 0.423,-0.228 0.419,-0.228C0.415,-0.228 0.413,-0.228 0.413,-0.23Z" style="fill-rule:nonzero;stroke:black;stroke-width:0.01px;"/>
                </g>
                <g transform="matrix(54,0,0,54,160.797,0)">
                </g>
            </g>
        </g>
    </g>
</svg>
