<?xml version="1.0" encoding="UTF-8" standalone="no"?>
<!DOCTYPE svg PUBLIC "-//W3C//DTD SVG 1.1//EN" "http://www.w3.org/Graphics/SVG/1.1/DTD/svg11.dtd">
<svg width="100%" height="100%" viewBox="0 0 1953 217" version="1.1" xmlns="http://www.w3.org/2000/svg" xmlns:xlink="http://www.w3.org/1999/xlink" xml:space="preserve" xmlns:serif="http://www.serif.com/" style="fill-rule:evenodd;clip-rule:evenodd;stroke-linejoin:round;stroke-miterlimit:2;">
    <g transform="matrix(1,0,0,1,-42.3069,-866.56)">
        <g transform="matrix(2.67242,-4.9725e-16,6.49679e-16,3.02011,-3121.6,480.43)">
            <g transform="matrix(0.914691,-4.97531e-19,4.97531e-19,0.914691,1180.59,181.144)">
                <g transform="matrix(80,0,0,80,78.56,0)">
                </g>
                <text x="0px" y="0px" style="font-family:'Avenir-Book', 'Avenir';font-size:80px;fill:rgb(234,84,85);stroke:rgb(234,84,85);stroke-width:0.38px;">C</text>
            </g>
            <g transform="matrix(0.914691,-4.97531e-19,4.97531e-19,0.914691,1180.59,196.161)">
                <g transform="matrix(80,0,0,80,78.56,0)">
                </g>
                <text x="0px" y="0px" style="font-family:'Avenir-Book', 'Avenir';font-size:80px;fill:rgb(234,84,85);stroke:rgb(234,84,85);stroke-width:0.38px;">C</text>
            </g>
            <g transform="matrix(0.914691,-4.97531e-19,4.97531e-19,0.914691,1180.59,183.144)">
                <g transform="matrix(80,0,0,80,78.56,0)">
                </g>
                <text x="0px" y="0px" style="font-family:'Avenir-Book', 'Avenir';font-size:80px;fill:rgb(253,252,248);stroke:rgb(253,252,248);stroke-width:0.38px;">C</text>
            </g>
            <g transform="matrix(0.914691,-4.97531e-19,4.97531e-19,0.914691,1180.59,198.161)">
                <g transform="matrix(80,0,0,80,78.56,0)">
                </g>
                <text x="0px" y="0px" style="font-family:'Avenir-Book', 'Avenir';font-size:80px;fill:rgb(253,252,248);stroke:rgb(253,252,248);stroke-width:0.38px;">C</text>
            </g>
        </g>
        <g transform="matrix(3.64283,1.21632e-16,1.42114e-16,4.31852,-1713.12,-201.484)">
            <g transform="matrix(0.921095,0,0,0.921095,621.61,290.163)">
                <g transform="matrix(54,0,0,54,-98.8442,0)">
                    <path d="M0.422,-0.636C0.444,-0.636 0.466,-0.635 0.488,-0.633C0.51,-0.631 0.53,-0.627 0.549,-0.622C0.569,-0.618 0.586,-0.612 0.601,-0.605C0.607,-0.602 0.61,-0.6 0.612,-0.597C0.613,-0.595 0.614,-0.59 0.615,-0.582L0.627,-0.45C0.627,-0.448 0.626,-0.447 0.622,-0.446C0.619,-0.445 0.617,-0.446 0.615,-0.449C0.598,-0.503 0.572,-0.545 0.538,-0.574C0.504,-0.602 0.461,-0.617 0.41,-0.617C0.361,-0.617 0.317,-0.605 0.279,-0.58C0.241,-0.556 0.212,-0.521 0.19,-0.476C0.169,-0.432 0.158,-0.378 0.158,-0.316C0.158,-0.271 0.164,-0.229 0.177,-0.191C0.19,-0.153 0.209,-0.12 0.232,-0.093C0.256,-0.065 0.283,-0.044 0.315,-0.029C0.346,-0.014 0.381,-0.007 0.418,-0.007C0.468,-0.007 0.509,-0.02 0.541,-0.046C0.573,-0.072 0.601,-0.113 0.625,-0.168C0.626,-0.17 0.628,-0.171 0.631,-0.17C0.634,-0.17 0.636,-0.168 0.636,-0.167L0.623,-0.048C0.622,-0.04 0.621,-0.034 0.619,-0.032C0.618,-0.03 0.614,-0.028 0.609,-0.025C0.576,-0.012 0.544,-0.002 0.513,0.004C0.481,0.009 0.45,0.012 0.417,0.012C0.346,0.012 0.283,-0.001 0.227,-0.029C0.172,-0.056 0.128,-0.094 0.096,-0.142C0.065,-0.191 0.049,-0.247 0.049,-0.311C0.049,-0.359 0.058,-0.403 0.077,-0.443C0.096,-0.483 0.122,-0.517 0.156,-0.546C0.189,-0.574 0.229,-0.597 0.274,-0.612C0.319,-0.628 0.369,-0.636 0.422,-0.636Z" style="fill:rgb(253,252,248);fill-rule:nonzero;stroke:rgb(253,252,248);stroke-width:0.01px;"/>
                </g>
                <g transform="matrix(54,0,0,54,-59.8211,0)">
                    <path d="M0.179,-0.245L0.192,-0.27L0.472,-0.27L0.479,-0.245L0.179,-0.245ZM0.711,-0.012C0.714,-0.012 0.715,-0.01 0.715,-0.006C0.715,-0.002 0.714,-0 0.711,-0C0.691,-0 0.671,-0.001 0.65,-0.002C0.628,-0.003 0.608,-0.004 0.589,-0.004C0.567,-0.004 0.547,-0.003 0.531,-0.002C0.515,-0.001 0.497,-0 0.477,-0C0.474,-0 0.473,-0.002 0.473,-0.006C0.473,-0.01 0.474,-0.012 0.477,-0.012C0.507,-0.012 0.525,-0.017 0.531,-0.028C0.537,-0.039 0.532,-0.06 0.516,-0.091L0.307,-0.516L0.348,-0.583L0.15,-0.137C0.133,-0.097 0.132,-0.066 0.148,-0.044C0.165,-0.023 0.193,-0.012 0.232,-0.012C0.236,-0.012 0.237,-0.01 0.237,-0.006C0.237,-0.002 0.236,-0 0.232,-0C0.212,-0 0.194,-0.001 0.177,-0.002C0.161,-0.003 0.14,-0.004 0.114,-0.004C0.089,-0.004 0.069,-0.003 0.054,-0.002C0.038,-0.001 0.02,-0 -0.002,-0C-0.005,-0 -0.006,-0.002 -0.006,-0.006C-0.006,-0.01 -0.005,-0.012 -0.002,-0.012C0.016,-0.012 0.031,-0.016 0.044,-0.023C0.057,-0.03 0.07,-0.044 0.083,-0.063C0.096,-0.083 0.11,-0.111 0.125,-0.147L0.34,-0.631C0.341,-0.633 0.344,-0.634 0.349,-0.634C0.353,-0.634 0.356,-0.633 0.357,-0.631L0.602,-0.137C0.617,-0.105 0.631,-0.08 0.643,-0.062C0.655,-0.043 0.666,-0.03 0.677,-0.023C0.688,-0.016 0.699,-0.012 0.711,-0.012Z" style="fill:rgb(253,252,248);fill-rule:nonzero;stroke:rgb(253,252,248);stroke-width:0.01px;"/>
                </g>
                <g transform="matrix(54,0,0,54,-19.2645,0)">
                    <path d="M0.538,-0C0.528,-0 0.511,-0.013 0.488,-0.038C0.464,-0.063 0.436,-0.1 0.403,-0.147C0.371,-0.195 0.334,-0.252 0.293,-0.318L0.373,-0.342C0.427,-0.261 0.474,-0.197 0.512,-0.148C0.55,-0.1 0.584,-0.065 0.614,-0.044C0.644,-0.023 0.672,-0.012 0.699,-0.012C0.701,-0.012 0.701,-0.01 0.701,-0.006C0.701,-0.002 0.701,-0 0.699,-0L0.538,-0ZM0.311,-0.628C0.369,-0.628 0.414,-0.617 0.446,-0.594C0.477,-0.571 0.493,-0.539 0.493,-0.499C0.493,-0.461 0.482,-0.427 0.46,-0.397C0.438,-0.367 0.41,-0.344 0.376,-0.327C0.342,-0.311 0.305,-0.302 0.266,-0.302C0.258,-0.302 0.249,-0.302 0.24,-0.303C0.231,-0.303 0.222,-0.303 0.215,-0.304L0.215,-0.081C0.215,-0.062 0.216,-0.047 0.22,-0.037C0.223,-0.027 0.231,-0.02 0.241,-0.017C0.252,-0.014 0.269,-0.012 0.291,-0.012C0.292,-0.012 0.293,-0.01 0.293,-0.006C0.293,-0.002 0.292,-0 0.291,-0C0.274,-0 0.255,-0 0.234,-0.001C0.213,-0.002 0.191,-0.002 0.166,-0.002C0.143,-0.002 0.12,-0.002 0.099,-0.001C0.078,-0 0.059,-0 0.042,-0C0.04,-0 0.039,-0.002 0.039,-0.006C0.039,-0.01 0.04,-0.012 0.042,-0.012C0.064,-0.012 0.08,-0.014 0.091,-0.017C0.102,-0.02 0.109,-0.027 0.113,-0.037C0.117,-0.047 0.119,-0.062 0.119,-0.081L0.119,-0.544C0.119,-0.563 0.117,-0.578 0.114,-0.588C0.11,-0.597 0.103,-0.604 0.092,-0.608C0.081,-0.611 0.065,-0.613 0.043,-0.613C0.042,-0.613 0.041,-0.615 0.041,-0.619C0.041,-0.623 0.042,-0.625 0.043,-0.625C0.06,-0.625 0.079,-0.624 0.1,-0.624C0.12,-0.623 0.143,-0.622 0.166,-0.622C0.187,-0.622 0.212,-0.623 0.238,-0.625C0.265,-0.627 0.289,-0.628 0.311,-0.628ZM0.394,-0.464C0.394,-0.503 0.39,-0.532 0.381,-0.553C0.372,-0.574 0.359,-0.589 0.343,-0.597C0.327,-0.605 0.308,-0.609 0.287,-0.609C0.261,-0.609 0.242,-0.604 0.231,-0.595C0.22,-0.585 0.215,-0.568 0.215,-0.542L0.215,-0.331C0.224,-0.329 0.234,-0.328 0.245,-0.328C0.255,-0.327 0.265,-0.327 0.273,-0.327C0.317,-0.327 0.349,-0.338 0.367,-0.36C0.385,-0.383 0.394,-0.417 0.394,-0.464Z" style="fill:rgb(253,252,248);fill-rule:nonzero;stroke:rgb(253,252,248);stroke-width:0.01px;"/>
                </g>
                <g transform="matrix(54,0,0,54,20.1271,0)">
                    <path d="M0.217,-0.081C0.217,-0.062 0.219,-0.047 0.223,-0.037C0.226,-0.027 0.233,-0.02 0.244,-0.017C0.255,-0.014 0.271,-0.012 0.293,-0.012C0.295,-0.012 0.296,-0.01 0.296,-0.006C0.296,-0.002 0.295,-0 0.293,-0C0.276,-0 0.257,-0 0.237,-0.001C0.216,-0.002 0.193,-0.002 0.168,-0.002C0.145,-0.002 0.122,-0.002 0.101,-0.001C0.08,-0 0.061,-0 0.044,-0C0.042,-0 0.041,-0.002 0.041,-0.006C0.041,-0.01 0.042,-0.012 0.044,-0.012C0.066,-0.012 0.082,-0.014 0.093,-0.017C0.104,-0.02 0.112,-0.027 0.116,-0.037C0.119,-0.047 0.121,-0.062 0.121,-0.081L0.121,-0.544C0.121,-0.563 0.119,-0.578 0.116,-0.588C0.112,-0.597 0.105,-0.604 0.093,-0.608C0.082,-0.611 0.066,-0.613 0.044,-0.613C0.042,-0.613 0.041,-0.615 0.041,-0.619C0.041,-0.623 0.042,-0.625 0.044,-0.625C0.061,-0.625 0.08,-0.624 0.101,-0.624C0.122,-0.623 0.145,-0.622 0.168,-0.622C0.193,-0.622 0.216,-0.623 0.237,-0.624C0.258,-0.624 0.277,-0.625 0.293,-0.625C0.295,-0.625 0.296,-0.623 0.296,-0.619C0.296,-0.615 0.295,-0.613 0.293,-0.613C0.272,-0.613 0.255,-0.611 0.245,-0.607C0.234,-0.603 0.227,-0.596 0.223,-0.586C0.219,-0.576 0.217,-0.561 0.217,-0.542L0.217,-0.081Z" style="fill:rgb(253,252,248);fill-rule:nonzero;stroke:rgb(253,252,248);stroke-width:0.01px;"/>
                </g>
                <g transform="matrix(54,0,0,54,40.5769,0)">
                    <path d="M0.318,0.004C0.297,0.004 0.272,0.003 0.241,0.001C0.21,-0.001 0.182,-0.002 0.157,-0.002C0.133,-0.002 0.111,-0.002 0.089,-0.001C0.068,-0 0.049,-0 0.032,-0C0.03,-0 0.03,-0.002 0.03,-0.006C0.03,-0.01 0.03,-0.012 0.032,-0.012C0.054,-0.012 0.07,-0.014 0.081,-0.017C0.092,-0.02 0.1,-0.027 0.104,-0.037C0.107,-0.047 0.109,-0.062 0.109,-0.081L0.109,-0.544C0.109,-0.563 0.107,-0.578 0.104,-0.588C0.1,-0.597 0.093,-0.604 0.082,-0.608C0.071,-0.611 0.055,-0.613 0.033,-0.613C0.032,-0.613 0.031,-0.615 0.031,-0.619C0.031,-0.623 0.032,-0.625 0.033,-0.625C0.05,-0.625 0.069,-0.624 0.09,-0.624C0.111,-0.623 0.133,-0.622 0.157,-0.622C0.18,-0.622 0.206,-0.623 0.233,-0.625C0.261,-0.626 0.284,-0.627 0.304,-0.627C0.374,-0.627 0.435,-0.614 0.487,-0.587C0.539,-0.56 0.579,-0.524 0.608,-0.478C0.637,-0.432 0.651,-0.38 0.651,-0.323C0.651,-0.273 0.643,-0.228 0.625,-0.188C0.607,-0.147 0.583,-0.113 0.552,-0.085C0.522,-0.056 0.486,-0.034 0.446,-0.019C0.405,-0.004 0.363,0.004 0.318,0.004ZM0.308,-0.016C0.354,-0.016 0.395,-0.027 0.43,-0.049C0.466,-0.071 0.493,-0.103 0.514,-0.146C0.534,-0.188 0.544,-0.24 0.544,-0.301C0.544,-0.358 0.535,-0.41 0.516,-0.456C0.497,-0.503 0.47,-0.539 0.436,-0.567C0.402,-0.594 0.361,-0.607 0.314,-0.607C0.274,-0.607 0.246,-0.604 0.23,-0.596C0.213,-0.589 0.204,-0.57 0.204,-0.542L0.204,-0.092C0.204,-0.066 0.211,-0.047 0.224,-0.035C0.237,-0.022 0.265,-0.016 0.308,-0.016Z" style="fill:rgb(253,252,248);fill-rule:nonzero;stroke:rgb(253,252,248);stroke-width:0.01px;"/>
                </g>
                <g transform="matrix(54,0,0,54,80.5545,0)">
                    <path d="M0.217,-0.081C0.217,-0.062 0.219,-0.047 0.223,-0.037C0.226,-0.027 0.233,-0.02 0.244,-0.017C0.255,-0.014 0.271,-0.012 0.293,-0.012C0.295,-0.012 0.296,-0.01 0.296,-0.006C0.296,-0.002 0.295,-0 0.293,-0C0.276,-0 0.257,-0 0.237,-0.001C0.216,-0.002 0.193,-0.002 0.168,-0.002C0.145,-0.002 0.122,-0.002 0.101,-0.001C0.08,-0 0.061,-0 0.044,-0C0.042,-0 0.041,-0.002 0.041,-0.006C0.041,-0.01 0.042,-0.012 0.044,-0.012C0.066,-0.012 0.082,-0.014 0.093,-0.017C0.104,-0.02 0.112,-0.027 0.116,-0.037C0.119,-0.047 0.121,-0.062 0.121,-0.081L0.121,-0.544C0.121,-0.563 0.119,-0.578 0.116,-0.588C0.112,-0.597 0.105,-0.604 0.093,-0.608C0.082,-0.611 0.066,-0.613 0.044,-0.613C0.042,-0.613 0.041,-0.615 0.041,-0.619C0.041,-0.623 0.042,-0.625 0.044,-0.625C0.061,-0.625 0.08,-0.624 0.101,-0.624C0.122,-0.623 0.145,-0.622 0.168,-0.622C0.193,-0.622 0.216,-0.623 0.237,-0.624C0.258,-0.624 0.277,-0.625 0.293,-0.625C0.295,-0.625 0.296,-0.623 0.296,-0.619C0.296,-0.615 0.295,-0.613 0.293,-0.613C0.272,-0.613 0.255,-0.611 0.245,-0.607C0.234,-0.603 0.227,-0.596 0.223,-0.586C0.219,-0.576 0.217,-0.561 0.217,-0.542L0.217,-0.081Z" style="fill:rgb(253,252,248);fill-rule:nonzero;stroke:rgb(253,252,248);stroke-width:0.01px;"/>
                </g>
                <g transform="matrix(54,0,0,54,98.8442,0)">
                </g>
                <g transform="matrix(54,0,0,54,113.64,0)">
                </g>
            </g>
            <g transform="matrix(0.921095,0,0,0.921095,871.101,290.163)">
                <g transform="matrix(54,0,0,54,-161.547,0)">
                    <path d="M0.422,-0.636C0.444,-0.636 0.466,-0.635 0.488,-0.633C0.51,-0.631 0.53,-0.627 0.549,-0.622C0.569,-0.618 0.586,-0.612 0.601,-0.605C0.607,-0.602 0.61,-0.6 0.612,-0.597C0.613,-0.595 0.614,-0.59 0.615,-0.582L0.627,-0.45C0.627,-0.448 0.626,-0.447 0.622,-0.446C0.619,-0.445 0.617,-0.446 0.615,-0.449C0.598,-0.503 0.572,-0.545 0.538,-0.574C0.504,-0.602 0.461,-0.617 0.41,-0.617C0.361,-0.617 0.317,-0.605 0.279,-0.58C0.241,-0.556 0.212,-0.521 0.19,-0.476C0.169,-0.432 0.158,-0.378 0.158,-0.316C0.158,-0.271 0.164,-0.229 0.177,-0.191C0.19,-0.153 0.209,-0.12 0.232,-0.093C0.256,-0.065 0.283,-0.044 0.315,-0.029C0.346,-0.014 0.381,-0.007 0.418,-0.007C0.468,-0.007 0.509,-0.02 0.541,-0.046C0.573,-0.072 0.601,-0.113 0.625,-0.168C0.626,-0.17 0.628,-0.171 0.631,-0.17C0.634,-0.17 0.636,-0.168 0.636,-0.167L0.623,-0.048C0.622,-0.04 0.621,-0.034 0.619,-0.032C0.618,-0.03 0.614,-0.028 0.609,-0.025C0.576,-0.012 0.544,-0.002 0.513,0.004C0.481,0.009 0.45,0.012 0.417,0.012C0.346,0.012 0.283,-0.001 0.227,-0.029C0.172,-0.056 0.128,-0.094 0.096,-0.142C0.065,-0.191 0.049,-0.247 0.049,-0.311C0.049,-0.359 0.058,-0.403 0.077,-0.443C0.096,-0.483 0.122,-0.517 0.156,-0.546C0.189,-0.574 0.229,-0.597 0.274,-0.612C0.319,-0.628 0.369,-0.636 0.422,-0.636Z" style="fill:rgb(253,252,248);fill-rule:nonzero;stroke:rgb(253,252,248);stroke-width:0.01px;"/>
                </g>
                <g transform="matrix(54,0,0,54,-122.524,0)">
                    <path d="M0.366,0.012C0.318,0.012 0.275,0.004 0.236,-0.014C0.197,-0.031 0.163,-0.054 0.136,-0.084C0.108,-0.114 0.087,-0.149 0.072,-0.188C0.057,-0.227 0.049,-0.268 0.049,-0.312C0.049,-0.366 0.059,-0.413 0.081,-0.454C0.101,-0.495 0.129,-0.529 0.164,-0.556C0.199,-0.583 0.237,-0.603 0.278,-0.616C0.319,-0.629 0.36,-0.636 0.401,-0.636C0.45,-0.636 0.495,-0.627 0.534,-0.61C0.572,-0.592 0.606,-0.568 0.633,-0.538C0.66,-0.508 0.681,-0.474 0.696,-0.436C0.71,-0.398 0.717,-0.359 0.717,-0.319C0.717,-0.272 0.708,-0.229 0.689,-0.189C0.67,-0.149 0.645,-0.114 0.613,-0.084C0.58,-0.054 0.543,-0.031 0.501,-0.014C0.458,0.004 0.413,0.012 0.366,0.012ZM0.4,-0.012C0.44,-0.012 0.476,-0.022 0.507,-0.044C0.539,-0.065 0.564,-0.097 0.583,-0.138C0.601,-0.18 0.61,-0.231 0.61,-0.29C0.61,-0.352 0.6,-0.407 0.58,-0.455C0.56,-0.503 0.531,-0.541 0.494,-0.569C0.456,-0.597 0.412,-0.61 0.36,-0.61C0.295,-0.61 0.245,-0.587 0.209,-0.541C0.174,-0.494 0.156,-0.43 0.156,-0.348C0.156,-0.3 0.162,-0.256 0.174,-0.215C0.186,-0.173 0.203,-0.138 0.224,-0.107C0.246,-0.077 0.272,-0.053 0.302,-0.037C0.332,-0.02 0.364,-0.012 0.4,-0.012Z" style="fill:rgb(253,252,248);fill-rule:nonzero;stroke:rgb(253,252,248);stroke-width:0.01px;"/>
                </g>
                <g transform="matrix(54,0,0,54,-78.9999,0)">
                    <path d="M0.125,-0.121L0.125,-0.602L0.152,-0.6L0.152,-0.121C0.152,-0.086 0.159,-0.059 0.173,-0.04C0.187,-0.021 0.207,-0.012 0.233,-0.012C0.235,-0.012 0.236,-0.01 0.236,-0.006C0.236,-0.002 0.235,-0 0.233,-0C0.219,-0 0.205,-0 0.19,-0.001C0.174,-0.002 0.158,-0.002 0.14,-0.002C0.121,-0.002 0.102,-0.002 0.085,-0.001C0.067,-0 0.05,-0 0.035,-0C0.033,-0 0.032,-0.002 0.032,-0.006C0.032,-0.01 0.033,-0.012 0.035,-0.012C0.064,-0.012 0.087,-0.021 0.102,-0.04C0.117,-0.059 0.125,-0.086 0.125,-0.121ZM0.633,0.014C0.633,0.016 0.631,0.017 0.628,0.017C0.625,0.017 0.623,0.017 0.621,0.017L0.14,-0.543C0.116,-0.57 0.096,-0.589 0.079,-0.599C0.062,-0.608 0.045,-0.613 0.029,-0.613C0.027,-0.613 0.026,-0.615 0.026,-0.619C0.026,-0.623 0.027,-0.625 0.029,-0.625C0.041,-0.625 0.055,-0.625 0.068,-0.624C0.081,-0.623 0.094,-0.623 0.105,-0.623C0.125,-0.623 0.143,-0.623 0.159,-0.624C0.176,-0.625 0.188,-0.625 0.197,-0.625C0.206,-0.625 0.212,-0.621 0.216,-0.614C0.22,-0.606 0.23,-0.592 0.246,-0.573L0.625,-0.127L0.633,0.014ZM0.633,-0.503L0.633,0.014L0.606,-0.016L0.606,-0.503C0.606,-0.538 0.599,-0.565 0.585,-0.584C0.572,-0.603 0.552,-0.613 0.525,-0.613C0.524,-0.613 0.523,-0.615 0.523,-0.619C0.523,-0.623 0.524,-0.625 0.525,-0.625C0.539,-0.625 0.554,-0.624 0.569,-0.624C0.584,-0.623 0.601,-0.622 0.619,-0.622C0.636,-0.622 0.653,-0.623 0.67,-0.624C0.687,-0.624 0.702,-0.625 0.716,-0.625C0.718,-0.625 0.719,-0.623 0.719,-0.619C0.719,-0.615 0.718,-0.613 0.716,-0.613C0.689,-0.613 0.668,-0.603 0.654,-0.584C0.64,-0.565 0.633,-0.538 0.633,-0.503Z" style="fill:rgb(253,252,248);fill-rule:nonzero;stroke:rgb(253,252,248);stroke-width:0.01px;"/>
                </g>
                <g transform="matrix(54,0,0,54,-37.2984,0)">
                    <path d="M0.422,-0.636C0.444,-0.636 0.466,-0.635 0.488,-0.633C0.51,-0.631 0.53,-0.627 0.549,-0.622C0.569,-0.618 0.586,-0.612 0.601,-0.605C0.607,-0.602 0.61,-0.6 0.612,-0.597C0.613,-0.595 0.614,-0.59 0.615,-0.582L0.627,-0.45C0.627,-0.448 0.626,-0.447 0.622,-0.446C0.619,-0.445 0.617,-0.446 0.615,-0.449C0.598,-0.503 0.572,-0.545 0.538,-0.574C0.504,-0.602 0.461,-0.617 0.41,-0.617C0.361,-0.617 0.317,-0.605 0.279,-0.58C0.241,-0.556 0.212,-0.521 0.19,-0.476C0.169,-0.432 0.158,-0.378 0.158,-0.316C0.158,-0.271 0.164,-0.229 0.177,-0.191C0.19,-0.153 0.209,-0.12 0.232,-0.093C0.256,-0.065 0.283,-0.044 0.315,-0.029C0.346,-0.014 0.381,-0.007 0.418,-0.007C0.468,-0.007 0.509,-0.02 0.541,-0.046C0.573,-0.072 0.601,-0.113 0.625,-0.168C0.626,-0.17 0.628,-0.171 0.631,-0.17C0.634,-0.17 0.636,-0.168 0.636,-0.167L0.623,-0.048C0.622,-0.04 0.621,-0.034 0.619,-0.032C0.618,-0.03 0.614,-0.028 0.609,-0.025C0.576,-0.012 0.544,-0.002 0.513,0.004C0.481,0.009 0.45,0.012 0.417,0.012C0.346,0.012 0.283,-0.001 0.227,-0.029C0.172,-0.056 0.128,-0.094 0.096,-0.142C0.065,-0.191 0.049,-0.247 0.049,-0.311C0.049,-0.359 0.058,-0.403 0.077,-0.443C0.096,-0.483 0.122,-0.517 0.156,-0.546C0.189,-0.574 0.229,-0.597 0.274,-0.612C0.319,-0.628 0.369,-0.636 0.422,-0.636Z" style="fill:rgb(253,252,248);fill-rule:nonzero;stroke:rgb(253,252,248);stroke-width:0.01px;"/>
                </g>
                <g transform="matrix(54,0,0,54,1.72469,0)">
                    <path d="M0.217,-0.081C0.217,-0.062 0.219,-0.047 0.223,-0.037C0.226,-0.027 0.233,-0.02 0.244,-0.017C0.255,-0.014 0.271,-0.012 0.293,-0.012C0.295,-0.012 0.296,-0.01 0.296,-0.006C0.296,-0.002 0.295,-0 0.293,-0C0.276,-0 0.257,-0 0.237,-0.001C0.216,-0.002 0.193,-0.002 0.168,-0.002C0.145,-0.002 0.122,-0.002 0.101,-0.001C0.08,-0 0.061,-0 0.044,-0C0.042,-0 0.041,-0.002 0.041,-0.006C0.041,-0.01 0.042,-0.012 0.044,-0.012C0.066,-0.012 0.082,-0.014 0.093,-0.017C0.104,-0.02 0.112,-0.027 0.116,-0.037C0.119,-0.047 0.121,-0.062 0.121,-0.081L0.121,-0.544C0.121,-0.563 0.119,-0.578 0.116,-0.588C0.112,-0.597 0.105,-0.604 0.093,-0.608C0.082,-0.611 0.066,-0.613 0.044,-0.613C0.042,-0.613 0.041,-0.615 0.041,-0.619C0.041,-0.623 0.042,-0.625 0.044,-0.625C0.061,-0.625 0.08,-0.624 0.101,-0.624C0.122,-0.623 0.145,-0.622 0.168,-0.622C0.193,-0.622 0.216,-0.623 0.237,-0.624C0.258,-0.624 0.277,-0.625 0.293,-0.625C0.295,-0.625 0.296,-0.623 0.296,-0.619C0.296,-0.615 0.295,-0.613 0.293,-0.613C0.272,-0.613 0.255,-0.611 0.245,-0.607C0.234,-0.603 0.227,-0.596 0.223,-0.586C0.219,-0.576 0.217,-0.561 0.217,-0.542L0.217,-0.081Z" style="fill:rgb(253,252,248);fill-rule:nonzero;stroke:rgb(253,252,248);stroke-width:0.01px;"/>
                </g>
                <g transform="matrix(54,0,0,54,22.1745,0)">
                    <path d="M0.476,-0L0.042,-0C0.04,-0 0.039,-0.002 0.039,-0.006C0.039,-0.01 0.04,-0.012 0.042,-0.012C0.064,-0.012 0.08,-0.014 0.091,-0.017C0.102,-0.02 0.109,-0.027 0.112,-0.037C0.116,-0.047 0.118,-0.062 0.118,-0.081L0.118,-0.544C0.118,-0.563 0.116,-0.578 0.112,-0.588C0.109,-0.597 0.102,-0.604 0.091,-0.608C0.08,-0.611 0.064,-0.613 0.042,-0.613C0.04,-0.613 0.039,-0.615 0.039,-0.619C0.039,-0.623 0.04,-0.625 0.042,-0.625L0.458,-0.625C0.465,-0.625 0.468,-0.622 0.468,-0.616L0.47,-0.486C0.47,-0.485 0.468,-0.484 0.465,-0.483C0.461,-0.483 0.459,-0.484 0.458,-0.486C0.45,-0.524 0.435,-0.552 0.412,-0.571C0.388,-0.589 0.358,-0.599 0.32,-0.599L0.279,-0.599C0.262,-0.599 0.249,-0.597 0.24,-0.593C0.23,-0.59 0.223,-0.584 0.219,-0.575C0.215,-0.567 0.213,-0.556 0.213,-0.542L0.213,-0.085C0.213,-0.071 0.215,-0.059 0.218,-0.05C0.222,-0.041 0.228,-0.035 0.236,-0.031C0.244,-0.027 0.256,-0.026 0.27,-0.026L0.319,-0.026C0.364,-0.026 0.401,-0.036 0.429,-0.058C0.457,-0.08 0.477,-0.113 0.489,-0.155C0.489,-0.157 0.491,-0.158 0.495,-0.157C0.499,-0.156 0.501,-0.155 0.501,-0.154C0.498,-0.135 0.496,-0.113 0.494,-0.087C0.492,-0.061 0.491,-0.037 0.491,-0.015C0.491,-0.005 0.486,-0 0.476,-0ZM0.42,-0.226C0.42,-0.254 0.411,-0.276 0.392,-0.29C0.374,-0.305 0.346,-0.312 0.308,-0.312L0.168,-0.312L0.168,-0.338L0.309,-0.338C0.346,-0.338 0.374,-0.344 0.392,-0.357C0.41,-0.37 0.419,-0.388 0.419,-0.412C0.419,-0.414 0.421,-0.415 0.424,-0.415C0.428,-0.415 0.43,-0.414 0.43,-0.412C0.43,-0.391 0.43,-0.374 0.43,-0.362C0.429,-0.35 0.429,-0.338 0.429,-0.325C0.429,-0.309 0.43,-0.293 0.43,-0.278C0.431,-0.262 0.432,-0.245 0.432,-0.226C0.432,-0.225 0.43,-0.224 0.426,-0.224C0.422,-0.224 0.42,-0.225 0.42,-0.226Z" style="fill:rgb(253,252,248);fill-rule:nonzero;stroke:rgb(253,252,248);stroke-width:0.01px;"/>
                </g>
                <g transform="matrix(54,0,0,54,53.8603,0)">
                    <path d="M0.538,-0C0.528,-0 0.511,-0.013 0.488,-0.038C0.464,-0.063 0.436,-0.1 0.403,-0.147C0.371,-0.195 0.334,-0.252 0.293,-0.318L0.373,-0.342C0.427,-0.261 0.474,-0.197 0.512,-0.148C0.55,-0.1 0.584,-0.065 0.614,-0.044C0.644,-0.023 0.672,-0.012 0.699,-0.012C0.701,-0.012 0.701,-0.01 0.701,-0.006C0.701,-0.002 0.701,-0 0.699,-0L0.538,-0ZM0.311,-0.628C0.369,-0.628 0.414,-0.617 0.446,-0.594C0.477,-0.571 0.493,-0.539 0.493,-0.499C0.493,-0.461 0.482,-0.427 0.46,-0.397C0.438,-0.367 0.41,-0.344 0.376,-0.327C0.342,-0.311 0.305,-0.302 0.266,-0.302C0.258,-0.302 0.249,-0.302 0.24,-0.303C0.231,-0.303 0.222,-0.303 0.215,-0.304L0.215,-0.081C0.215,-0.062 0.216,-0.047 0.22,-0.037C0.223,-0.027 0.231,-0.02 0.241,-0.017C0.252,-0.014 0.269,-0.012 0.291,-0.012C0.292,-0.012 0.293,-0.01 0.293,-0.006C0.293,-0.002 0.292,-0 0.291,-0C0.274,-0 0.255,-0 0.234,-0.001C0.213,-0.002 0.191,-0.002 0.166,-0.002C0.143,-0.002 0.12,-0.002 0.099,-0.001C0.078,-0 0.059,-0 0.042,-0C0.04,-0 0.039,-0.002 0.039,-0.006C0.039,-0.01 0.04,-0.012 0.042,-0.012C0.064,-0.012 0.08,-0.014 0.091,-0.017C0.102,-0.02 0.109,-0.027 0.113,-0.037C0.117,-0.047 0.119,-0.062 0.119,-0.081L0.119,-0.544C0.119,-0.563 0.117,-0.578 0.114,-0.588C0.11,-0.597 0.103,-0.604 0.092,-0.608C0.081,-0.611 0.065,-0.613 0.043,-0.613C0.042,-0.613 0.041,-0.615 0.041,-0.619C0.041,-0.623 0.042,-0.625 0.043,-0.625C0.06,-0.625 0.079,-0.624 0.1,-0.624C0.12,-0.623 0.143,-0.622 0.166,-0.622C0.187,-0.622 0.212,-0.623 0.238,-0.625C0.265,-0.627 0.289,-0.628 0.311,-0.628ZM0.394,-0.464C0.394,-0.503 0.39,-0.532 0.381,-0.553C0.372,-0.574 0.359,-0.589 0.343,-0.597C0.327,-0.605 0.308,-0.609 0.287,-0.609C0.261,-0.609 0.242,-0.604 0.231,-0.595C0.22,-0.585 0.215,-0.568 0.215,-0.542L0.215,-0.331C0.224,-0.329 0.234,-0.328 0.245,-0.328C0.255,-0.327 0.265,-0.327 0.273,-0.327C0.317,-0.327 0.349,-0.338 0.367,-0.36C0.385,-0.383 0.394,-0.417 0.394,-0.464Z" style="fill:rgb(253,252,248);fill-rule:nonzero;stroke:rgb(253,252,248);stroke-width:0.01px;"/>
                </g>
                <g transform="matrix(54,0,0,54,90.7139,0)">
                    <path d="M0.417,0.012C0.359,0.012 0.307,0.004 0.261,-0.013C0.216,-0.03 0.177,-0.053 0.146,-0.083C0.114,-0.113 0.09,-0.147 0.074,-0.186C0.057,-0.225 0.049,-0.267 0.049,-0.311C0.049,-0.36 0.059,-0.404 0.078,-0.444C0.097,-0.484 0.124,-0.518 0.159,-0.546C0.194,-0.575 0.235,-0.597 0.281,-0.613C0.328,-0.628 0.379,-0.636 0.434,-0.636C0.467,-0.636 0.499,-0.633 0.531,-0.628C0.562,-0.622 0.588,-0.615 0.608,-0.605C0.615,-0.602 0.619,-0.6 0.62,-0.598C0.621,-0.596 0.621,-0.591 0.622,-0.582L0.635,-0.451C0.635,-0.449 0.633,-0.447 0.63,-0.447C0.626,-0.446 0.624,-0.447 0.623,-0.449C0.617,-0.466 0.609,-0.484 0.597,-0.503C0.586,-0.523 0.571,-0.541 0.553,-0.558C0.535,-0.575 0.514,-0.589 0.489,-0.6C0.464,-0.611 0.435,-0.617 0.402,-0.617C0.356,-0.617 0.315,-0.605 0.277,-0.582C0.24,-0.559 0.21,-0.526 0.188,-0.483C0.166,-0.44 0.155,-0.389 0.155,-0.33C0.155,-0.284 0.162,-0.242 0.175,-0.203C0.188,-0.163 0.207,-0.129 0.233,-0.099C0.258,-0.069 0.288,-0.046 0.323,-0.029C0.358,-0.013 0.398,-0.004 0.442,-0.004C0.47,-0.004 0.492,-0.008 0.508,-0.014C0.525,-0.021 0.537,-0.033 0.544,-0.051C0.552,-0.068 0.555,-0.093 0.555,-0.126C0.555,-0.158 0.553,-0.181 0.55,-0.196C0.546,-0.211 0.537,-0.221 0.522,-0.226C0.507,-0.23 0.484,-0.233 0.451,-0.233C0.447,-0.233 0.445,-0.235 0.445,-0.241C0.445,-0.246 0.446,-0.249 0.45,-0.249C0.495,-0.246 0.536,-0.245 0.572,-0.244C0.609,-0.244 0.647,-0.245 0.687,-0.247C0.69,-0.247 0.692,-0.244 0.692,-0.24C0.692,-0.235 0.69,-0.233 0.687,-0.233C0.674,-0.233 0.665,-0.231 0.659,-0.226C0.653,-0.221 0.649,-0.21 0.648,-0.194C0.646,-0.177 0.645,-0.151 0.645,-0.116C0.645,-0.094 0.646,-0.077 0.647,-0.067C0.649,-0.056 0.65,-0.048 0.651,-0.043C0.652,-0.038 0.652,-0.033 0.652,-0.028C0.652,-0.024 0.652,-0.021 0.65,-0.02C0.649,-0.018 0.646,-0.017 0.641,-0.016C0.606,-0.008 0.568,-0.001 0.529,0.004C0.49,0.009 0.452,0.012 0.417,0.012Z" style="fill:rgb(253,252,248);fill-rule:nonzero;stroke:rgb(253,252,248);stroke-width:0.01px;"/>
                </g>
                <g transform="matrix(54,0,0,54,132.021,0)">
                    <path d="M0.476,-0L0.042,-0C0.04,-0 0.039,-0.002 0.039,-0.006C0.039,-0.01 0.04,-0.012 0.042,-0.012C0.064,-0.012 0.08,-0.014 0.091,-0.017C0.102,-0.02 0.109,-0.027 0.112,-0.037C0.116,-0.047 0.118,-0.062 0.118,-0.081L0.118,-0.544C0.118,-0.563 0.116,-0.578 0.112,-0.588C0.109,-0.597 0.102,-0.604 0.091,-0.608C0.08,-0.611 0.064,-0.613 0.042,-0.613C0.04,-0.613 0.039,-0.615 0.039,-0.619C0.039,-0.623 0.04,-0.625 0.042,-0.625L0.458,-0.625C0.465,-0.625 0.468,-0.622 0.468,-0.616L0.47,-0.486C0.47,-0.485 0.468,-0.484 0.465,-0.483C0.461,-0.483 0.459,-0.484 0.458,-0.486C0.45,-0.524 0.435,-0.552 0.412,-0.571C0.388,-0.589 0.358,-0.599 0.32,-0.599L0.279,-0.599C0.262,-0.599 0.249,-0.597 0.24,-0.593C0.23,-0.59 0.223,-0.584 0.219,-0.575C0.215,-0.567 0.213,-0.556 0.213,-0.542L0.213,-0.085C0.213,-0.071 0.215,-0.059 0.218,-0.05C0.222,-0.041 0.228,-0.035 0.236,-0.031C0.244,-0.027 0.256,-0.026 0.27,-0.026L0.319,-0.026C0.364,-0.026 0.401,-0.036 0.429,-0.058C0.457,-0.08 0.477,-0.113 0.489,-0.155C0.489,-0.157 0.491,-0.158 0.495,-0.157C0.499,-0.156 0.501,-0.155 0.501,-0.154C0.498,-0.135 0.496,-0.113 0.494,-0.087C0.492,-0.061 0.491,-0.037 0.491,-0.015C0.491,-0.005 0.486,-0 0.476,-0ZM0.42,-0.226C0.42,-0.254 0.411,-0.276 0.392,-0.29C0.374,-0.305 0.346,-0.312 0.308,-0.312L0.168,-0.312L0.168,-0.338L0.309,-0.338C0.346,-0.338 0.374,-0.344 0.392,-0.357C0.41,-0.37 0.419,-0.388 0.419,-0.412C0.419,-0.414 0.421,-0.415 0.424,-0.415C0.428,-0.415 0.43,-0.414 0.43,-0.412C0.43,-0.391 0.43,-0.374 0.43,-0.362C0.429,-0.35 0.429,-0.338 0.429,-0.325C0.429,-0.309 0.43,-0.293 0.43,-0.278C0.431,-0.262 0.432,-0.245 0.432,-0.226C0.432,-0.225 0.43,-0.224 0.426,-0.224C0.422,-0.224 0.42,-0.225 0.42,-0.226Z" style="fill:rgb(253,252,248);fill-rule:nonzero;stroke:rgb(253,252,248);stroke-width:0.01px;"/>
                </g>
                <g transform="matrix(54,0,0,54,161.547,0)">
                </g>
            </g>
        </g>
    </g>
</svg>
