<?xml version="1.0" encoding="UTF-8" standalone="no"?><!DOCTYPE svg PUBLIC "-//W3C//DTD SVG 1.1//EN" "http://www.w3.org/Graphics/SVG/1.1/DTD/svg11.dtd"><svg width="100%" height="100%" viewBox="0 0 150 150" version="1.1" xmlns="http://www.w3.org/2000/svg" xmlns:xlink="http://www.w3.org/1999/xlink" xml:space="preserve" xmlns:serif="http://www.serif.com/" style="fill-rule:evenodd;clip-rule:evenodd;stroke-linecap:round;stroke-linejoin:round;stroke-miterlimit:1.5;"><rect x="0" y="-0" width="150" height="150" style="fill:#1a2c33;stroke:#1a2c33;stroke-width:1.5px;"/><g><path d="M109.63,88.8c-1.317,1.975 -2.945,3.841 -4.884,5.597c-1.939,1.757 -4.153,3.275 -6.641,4.556c-2.488,1.28 -5.177,2.286 -8.067,3.018c-2.891,0.732 -5.946,1.098 -9.166,1.098c-5.781,-0 -11.141,-1.025 -16.08,-3.074c-4.939,-2.049 -9.22,-4.884 -12.842,-8.506c-3.622,-3.622 -6.458,-7.921 -8.507,-12.897c-2.049,-4.976 -3.073,-10.428 -3.073,-16.355c-0,-5.927 1.024,-11.379 3.073,-16.355c2.049,-4.976 4.885,-9.275 8.507,-12.897c3.622,-3.622 7.903,-6.458 12.842,-8.507c4.939,-2.048 10.299,-3.073 16.08,-3.073c4.83,0 9.659,0.951 14.489,2.854c4.83,1.902 8.964,5.049 12.403,9.44l-6.915,5.158c-0.805,-1.244 -1.902,-2.488 -3.293,-3.732c-1.39,-1.244 -2.982,-2.341 -4.774,-3.292c-1.793,-0.952 -3.714,-1.72 -5.763,-2.305c-2.049,-0.586 -4.098,-0.879 -6.147,-0.879c-4.976,0 -9.439,0.915 -13.391,2.745c-3.951,1.829 -7.299,4.28 -10.043,7.354c-2.744,3.073 -4.848,6.64 -6.311,10.702c-1.464,4.061 -2.196,8.323 -2.196,12.787c0,4.464 0.732,8.726 2.196,12.787c1.463,4.062 3.567,7.629 6.311,10.702c2.744,3.074 6.092,5.525 10.043,7.354c3.952,1.83 8.415,2.744 13.391,2.744c2.049,0 4.08,-0.183 6.092,-0.548c2.012,-0.366 3.988,-0.988 5.927,-1.866c1.94,-0.879 3.769,-2.068 5.489,-3.568c1.719,-1.5 3.311,-3.384 4.774,-5.652l6.476,4.61Z" style="fill:#ea5455;stroke:#ea5455;stroke-width:1.5px;stroke-linecap:butt;stroke-miterlimit:2;"/><path d="M109.63,111.326c-1.317,1.975 -2.945,3.841 -4.884,5.598c-1.939,1.756 -4.153,3.274 -6.641,4.555c-2.488,1.28 -5.177,2.287 -8.067,3.018c-2.891,0.732 -5.946,1.098 -9.166,1.098c-5.781,-0 -11.141,-1.025 -16.08,-3.073c-4.939,-2.049 -9.22,-4.885 -12.842,-8.507c-3.622,-3.622 -6.458,-7.921 -8.507,-12.897c-2.049,-4.976 -3.073,-10.428 -3.073,-16.355c-0,-5.927 1.024,-11.379 3.073,-16.355c2.049,-4.976 4.885,-9.275 8.507,-12.897c3.622,-3.622 7.903,-6.457 12.842,-8.506c4.939,-2.049 10.299,-3.074 16.08,-3.074c4.83,0 9.659,0.952 14.489,2.854c4.83,1.903 8.964,5.049 12.403,9.44l-6.915,5.159c-0.805,-1.244 -1.902,-2.488 -3.293,-3.732c-1.39,-1.244 -2.982,-2.342 -4.774,-3.293c-1.793,-0.952 -3.714,-1.72 -5.763,-2.305c-2.049,-0.586 -4.098,-0.878 -6.147,-0.878c-4.976,-0 -9.439,0.914 -13.391,2.744c-3.951,1.829 -7.299,4.28 -10.043,7.354c-2.744,3.073 -4.848,6.64 -6.311,10.702c-1.464,4.061 -2.196,8.323 -2.196,12.787c0,4.464 0.732,8.726 2.196,12.787c1.463,4.062 3.567,7.629 6.311,10.702c2.744,3.074 6.092,5.525 10.043,7.354c3.952,1.83 8.415,2.745 13.391,2.745c2.049,-0 4.08,-0.183 6.092,-0.549c2.012,-0.366 3.988,-0.988 5.927,-1.866c1.94,-0.878 3.769,-2.067 5.489,-3.568c1.719,-1.5 3.311,-3.384 4.774,-5.652l6.476,4.61Z" style="fill:#ea5455;stroke:#ea5455;stroke-width:1.5px;stroke-linecap:butt;stroke-miterlimit:2;"/><path d="M109.63,91.8c-1.317,1.975 -2.945,3.841 -4.884,5.597c-1.939,1.757 -4.153,3.275 -6.641,4.556c-2.488,1.28 -5.177,2.286 -8.067,3.018c-2.891,0.732 -5.946,1.098 -9.166,1.098c-5.781,-0 -11.141,-1.025 -16.08,-3.074c-4.939,-2.049 -9.22,-4.884 -12.842,-8.506c-3.622,-3.622 -6.458,-7.921 -8.507,-12.897c-2.049,-4.976 -3.073,-10.428 -3.073,-16.355c-0,-5.927 1.024,-11.379 3.073,-16.355c2.049,-4.976 4.885,-9.275 8.507,-12.897c3.622,-3.622 7.903,-6.458 12.842,-8.507c4.939,-2.048 10.299,-3.073 16.08,-3.073c4.83,0 9.659,0.951 14.489,2.854c4.83,1.902 8.964,5.049 12.403,9.44l-6.915,5.158c-0.805,-1.244 -1.902,-2.488 -3.293,-3.732c-1.39,-1.244 -2.982,-2.341 -4.774,-3.292c-1.793,-0.952 -3.714,-1.72 -5.763,-2.305c-2.049,-0.586 -4.098,-0.879 -6.147,-0.879c-4.976,0 -9.439,0.915 -13.391,2.745c-3.951,1.829 -7.299,4.28 -10.043,7.354c-2.744,3.073 -4.848,6.64 -6.311,10.702c-1.464,4.061 -2.196,8.323 -2.196,12.787c0,4.464 0.732,8.726 2.196,12.787c1.463,4.062 3.567,7.629 6.311,10.702c2.744,3.074 6.092,5.525 10.043,7.354c3.952,1.83 8.415,2.744 13.391,2.744c2.049,0 4.08,-0.183 6.092,-0.548c2.012,-0.366 3.988,-0.988 5.927,-1.866c1.94,-0.879 3.769,-2.068 5.489,-3.568c1.719,-1.5 3.311,-3.384 4.774,-5.652l6.476,4.61Z" style="fill:#fdfcf8;stroke:#fdfcf8;stroke-width:1.5px;stroke-linecap:butt;stroke-miterlimit:2;"/><path d="M109.63,114.326c-1.317,1.975 -2.945,3.841 -4.884,5.598c-1.939,1.756 -4.153,3.274 -6.641,4.555c-2.488,1.28 -5.177,2.287 -8.067,3.018c-2.891,0.732 -5.946,1.098 -9.166,1.098c-5.781,-0 -11.141,-1.025 -16.08,-3.073c-4.939,-2.049 -9.22,-4.885 -12.842,-8.507c-3.622,-3.622 -6.458,-7.921 -8.507,-12.897c-2.049,-4.976 -3.073,-10.428 -3.073,-16.355c-0,-5.927 1.024,-11.379 3.073,-16.355c2.049,-4.976 4.885,-9.275 8.507,-12.897c3.622,-3.622 7.903,-6.457 12.842,-8.506c4.939,-2.049 10.299,-3.074 16.08,-3.074c4.83,0 9.659,0.952 14.489,2.854c4.83,1.903 8.964,5.049 12.403,9.44l-6.915,5.159c-0.805,-1.244 -1.902,-2.488 -3.293,-3.732c-1.39,-1.244 -2.982,-2.342 -4.774,-3.293c-1.793,-0.952 -3.714,-1.72 -5.763,-2.305c-2.049,-0.586 -4.098,-0.878 -6.147,-0.878c-4.976,-0 -9.439,0.914 -13.391,2.744c-3.951,1.829 -7.299,4.28 -10.043,7.354c-2.744,3.073 -4.848,6.64 -6.311,10.702c-1.464,4.061 -2.196,8.323 -2.196,12.787c0,4.464 0.732,8.726 2.196,12.787c1.463,4.062 3.567,7.629 6.311,10.702c2.744,3.074 6.092,5.525 10.043,7.354c3.952,1.83 8.415,2.745 13.391,2.745c2.049,-0 4.08,-0.183 6.092,-0.549c2.012,-0.366 3.988,-0.988 5.927,-1.866c1.94,-0.878 3.769,-2.067 5.489,-3.568c1.719,-1.5 3.311,-3.384 4.774,-5.652l6.476,4.61Z" style="fill:#fdfcf8;stroke:#fdfcf8;stroke-width:1.5px;stroke-linecap:butt;stroke-miterlimit:2;"/></g></svg>