<?xml version="1.0" encoding="UTF-8" standalone="no"?>
<!DOCTYPE svg PUBLIC "-//W3C//DTD SVG 1.1//EN" "http://www.w3.org/Graphics/SVG/1.1/DTD/svg11.dtd">
<svg width="100%" height="100%" viewBox="0 0 100 100" version="1.1" xmlns="http://www.w3.org/2000/svg" xmlns:xlink="http://www.w3.org/1999/xlink" xml:space="preserve" xmlns:serif="http://www.serif.com/" style="fill-rule:evenodd;clip-rule:evenodd;stroke-linecap:round;stroke-linejoin:round;stroke-miterlimit:1.5;">
    <g transform="matrix(2.74624,0,0,2.12372,-8.16424,-7.35455)">
        <rect x="2.973" y="3.463" width="36.413" height="47.087" style="fill:rgb(26,44,51);stroke:rgb(26,44,51);stroke-width:0.41px;"/>
    </g>
    <g transform="matrix(1,0,0,1,-1157.19,-113.749)">
        <g transform="matrix(0.914691,-4.97531e-19,4.97531e-19,0.914691,1180.59,181.144)">
            <path d="M54.32,-8.96C53.36,-7.52 52.173,-6.16 50.76,-4.88C49.347,-3.6 47.733,-2.493 45.92,-1.56C44.107,-0.627 42.147,0.107 40.04,0.64C37.933,1.173 35.707,1.44 33.36,1.44C29.147,1.44 25.24,0.693 21.64,-0.8C18.04,-2.293 14.92,-4.36 12.28,-7C9.64,-9.64 7.573,-12.773 6.08,-16.4C4.587,-20.027 3.84,-24 3.84,-28.32C3.84,-32.64 4.587,-36.613 6.08,-40.24C7.573,-43.867 9.64,-47 12.28,-49.64C14.92,-52.28 18.04,-54.347 21.64,-55.84C25.24,-57.333 29.147,-58.08 33.36,-58.08C36.88,-58.08 40.4,-57.387 43.92,-56C47.44,-54.613 50.453,-52.32 52.96,-49.12L47.92,-45.36C47.333,-46.267 46.533,-47.173 45.52,-48.08C44.507,-48.987 43.347,-49.787 42.04,-50.48C40.733,-51.173 39.333,-51.733 37.84,-52.16C36.347,-52.587 34.853,-52.8 33.36,-52.8C29.733,-52.8 26.48,-52.133 23.6,-50.8C20.72,-49.467 18.28,-47.68 16.28,-45.44C14.28,-43.2 12.747,-40.6 11.68,-37.64C10.613,-34.68 10.08,-31.573 10.08,-28.32C10.08,-25.067 10.613,-21.96 11.68,-19C12.747,-16.04 14.28,-13.44 16.28,-11.2C18.28,-8.96 20.72,-7.173 23.6,-5.84C26.48,-4.507 29.733,-3.84 33.36,-3.84C34.853,-3.84 36.333,-3.973 37.8,-4.24C39.267,-4.507 40.707,-4.96 42.12,-5.6C43.533,-6.24 44.867,-7.107 46.12,-8.2C47.373,-9.293 48.533,-10.667 49.6,-12.32L54.32,-8.96Z" style="fill:rgb(234,84,85);stroke:rgb(234,84,85);stroke-width:1.09px;stroke-linecap:butt;stroke-miterlimit:2;"/>
        </g>
        <g transform="matrix(0.914691,-4.97531e-19,4.97531e-19,0.914691,1180.59,196.161)">
            <path d="M54.32,-8.96C53.36,-7.52 52.173,-6.16 50.76,-4.88C49.347,-3.6 47.733,-2.493 45.92,-1.56C44.107,-0.627 42.147,0.107 40.04,0.64C37.933,1.173 35.707,1.44 33.36,1.44C29.147,1.44 25.24,0.693 21.64,-0.8C18.04,-2.293 14.92,-4.36 12.28,-7C9.64,-9.64 7.573,-12.773 6.08,-16.4C4.587,-20.027 3.84,-24 3.84,-28.32C3.84,-32.64 4.587,-36.613 6.08,-40.24C7.573,-43.867 9.64,-47 12.28,-49.64C14.92,-52.28 18.04,-54.347 21.64,-55.84C25.24,-57.333 29.147,-58.08 33.36,-58.08C36.88,-58.08 40.4,-57.387 43.92,-56C47.44,-54.613 50.453,-52.32 52.96,-49.12L47.92,-45.36C47.333,-46.267 46.533,-47.173 45.52,-48.08C44.507,-48.987 43.347,-49.787 42.04,-50.48C40.733,-51.173 39.333,-51.733 37.84,-52.16C36.347,-52.587 34.853,-52.8 33.36,-52.8C29.733,-52.8 26.48,-52.133 23.6,-50.8C20.72,-49.467 18.28,-47.68 16.28,-45.44C14.28,-43.2 12.747,-40.6 11.68,-37.64C10.613,-34.68 10.08,-31.573 10.08,-28.32C10.08,-25.067 10.613,-21.96 11.68,-19C12.747,-16.04 14.28,-13.44 16.28,-11.2C18.28,-8.96 20.72,-7.173 23.6,-5.84C26.48,-4.507 29.733,-3.84 33.36,-3.84C34.853,-3.84 36.333,-3.973 37.8,-4.24C39.267,-4.507 40.707,-4.96 42.12,-5.6C43.533,-6.24 44.867,-7.107 46.12,-8.2C47.373,-9.293 48.533,-10.667 49.6,-12.32L54.32,-8.96Z" style="fill:rgb(234,84,85);stroke:rgb(234,84,85);stroke-width:1.09px;stroke-linecap:butt;stroke-miterlimit:2;"/>
        </g>
        <g transform="matrix(0.914691,-4.97531e-19,4.97531e-19,0.914691,1180.59,183.144)">
            <path d="M54.32,-8.96C53.36,-7.52 52.173,-6.16 50.76,-4.88C49.347,-3.6 47.733,-2.493 45.92,-1.56C44.107,-0.627 42.147,0.107 40.04,0.64C37.933,1.173 35.707,1.44 33.36,1.44C29.147,1.44 25.24,0.693 21.64,-0.8C18.04,-2.293 14.92,-4.36 12.28,-7C9.64,-9.64 7.573,-12.773 6.08,-16.4C4.587,-20.027 3.84,-24 3.84,-28.32C3.84,-32.64 4.587,-36.613 6.08,-40.24C7.573,-43.867 9.64,-47 12.28,-49.64C14.92,-52.28 18.04,-54.347 21.64,-55.84C25.24,-57.333 29.147,-58.08 33.36,-58.08C36.88,-58.08 40.4,-57.387 43.92,-56C47.44,-54.613 50.453,-52.32 52.96,-49.12L47.92,-45.36C47.333,-46.267 46.533,-47.173 45.52,-48.08C44.507,-48.987 43.347,-49.787 42.04,-50.48C40.733,-51.173 39.333,-51.733 37.84,-52.16C36.347,-52.587 34.853,-52.8 33.36,-52.8C29.733,-52.8 26.48,-52.133 23.6,-50.8C20.72,-49.467 18.28,-47.68 16.28,-45.44C14.28,-43.2 12.747,-40.6 11.68,-37.64C10.613,-34.68 10.08,-31.573 10.08,-28.32C10.08,-25.067 10.613,-21.96 11.68,-19C12.747,-16.04 14.28,-13.44 16.28,-11.2C18.28,-8.96 20.72,-7.173 23.6,-5.84C26.48,-4.507 29.733,-3.84 33.36,-3.84C34.853,-3.84 36.333,-3.973 37.8,-4.24C39.267,-4.507 40.707,-4.96 42.12,-5.6C43.533,-6.24 44.867,-7.107 46.12,-8.2C47.373,-9.293 48.533,-10.667 49.6,-12.32L54.32,-8.96Z" style="fill:rgb(253,252,248);stroke:rgb(253,252,248);stroke-width:1.09px;stroke-linecap:butt;stroke-miterlimit:2;"/>
        </g>
        <g transform="matrix(0.914691,-4.97531e-19,4.97531e-19,0.914691,1180.59,198.161)">
            <path d="M54.32,-8.96C53.36,-7.52 52.173,-6.16 50.76,-4.88C49.347,-3.6 47.733,-2.493 45.92,-1.56C44.107,-0.627 42.147,0.107 40.04,0.64C37.933,1.173 35.707,1.44 33.36,1.44C29.147,1.44 25.24,0.693 21.64,-0.8C18.04,-2.293 14.92,-4.36 12.28,-7C9.64,-9.64 7.573,-12.773 6.08,-16.4C4.587,-20.027 3.84,-24 3.84,-28.32C3.84,-32.64 4.587,-36.613 6.08,-40.24C7.573,-43.867 9.64,-47 12.28,-49.64C14.92,-52.28 18.04,-54.347 21.64,-55.84C25.24,-57.333 29.147,-58.08 33.36,-58.08C36.88,-58.08 40.4,-57.387 43.92,-56C47.44,-54.613 50.453,-52.32 52.96,-49.12L47.92,-45.36C47.333,-46.267 46.533,-47.173 45.52,-48.08C44.507,-48.987 43.347,-49.787 42.04,-50.48C40.733,-51.173 39.333,-51.733 37.84,-52.16C36.347,-52.587 34.853,-52.8 33.36,-52.8C29.733,-52.8 26.48,-52.133 23.6,-50.8C20.72,-49.467 18.28,-47.68 16.28,-45.44C14.28,-43.2 12.747,-40.6 11.68,-37.64C10.613,-34.68 10.08,-31.573 10.08,-28.32C10.08,-25.067 10.613,-21.96 11.68,-19C12.747,-16.04 14.28,-13.44 16.28,-11.2C18.28,-8.96 20.72,-7.173 23.6,-5.84C26.48,-4.507 29.733,-3.84 33.36,-3.84C34.853,-3.84 36.333,-3.973 37.8,-4.24C39.267,-4.507 40.707,-4.96 42.12,-5.6C43.533,-6.24 44.867,-7.107 46.12,-8.2C47.373,-9.293 48.533,-10.667 49.6,-12.32L54.32,-8.96Z" style="fill:rgb(253,252,248);stroke:rgb(253,252,248);stroke-width:1.09px;stroke-linecap:butt;stroke-miterlimit:2;"/>
        </g>
    </g>
</svg>
